<?xml version="1.0" encoding="UTF-8" standalone="no"?>
<!DOCTYPE svg PUBLIC "-//W3C//DTD SVG 1.1//EN" "http://www.w3.org/Graphics/SVG/1.1/DTD/svg11.dtd">
<svg width="100%" height="100%" viewBox="0 0 6809 2347" version="1.1" xmlns="http://www.w3.org/2000/svg" xmlns:xlink="http://www.w3.org/1999/xlink" xml:space="preserve" xmlns:serif="http://www.serif.com/" style="fill-rule:evenodd;clip-rule:evenodd;stroke-linejoin:round;stroke-miterlimit:1.41421;">
    <g transform="matrix(1,0,0,1,0.28796,-0.0410371)">
        <g transform="matrix(4.16667,0,0,4.16667,0,0)">
            <clipPath id="_clip1">
                <rect x="0" y="0.211" width="1271.92" height="542.98"/>
            </clipPath>
            <g clip-path="url(#_clip1)">
                <path d="M195.181,515.265C117.133,478.555 73.038,430.656 75.534,374.922C82.611,218.756 452.777,58.493 899.614,18.22C1034.07,6.099 1160.52,6.202 1271.49,16.499C1143.99,-2.011 990.129,-5.678 824.045,9.284C377.277,49.591 7.093,209.82 0.034,365.968C-3.443,442.639 81.233,504.452 221.197,542.726L195.181,515.265Z" style="fill:white;"/>
            </g>
            <path d="M169.32,463.111C145.973,439.42 134.781,413.678 136.004,386.337C142.529,242.344 485.25,94.771 899.976,57.374C963.441,51.64 1026.42,48.748 1087.19,48.748C1200.55,48.748 1306.76,58.992 1394.4,78.362L1395.83,72.387C1302.82,48.145 1186.41,35.335 1059.24,35.335C999.013,35.335 936.563,38.21 873.633,43.875C461.025,81.065 120.008,229.448 113.431,374.629C111.658,414.436 134.299,450.439 180.701,481.655L169.32,463.111Z" style="fill:white;fill-rule:nonzero;"/>
            <path d="M530.636,477.35C413.349,477.35 319.098,422.804 319.098,341.382C319.098,259.562 413.349,205.808 530.636,205.808C586.474,205.808 637.68,220.047 675.077,242.568L628.468,275.781C607.979,263.126 576.746,248.904 538.832,248.904C484.544,248.904 449.712,276.556 449.712,341.382C449.712,405.415 484.544,433.084 538.832,433.084C576.746,433.084 607.979,419.654 628.468,406.999L675.077,440.194C637.68,463.129 586.474,477.35 530.636,477.35Z" style="fill:white;fill-rule:nonzero;"/>
            <path d="M1059.93,469.051L1059.93,309.769L969.261,469.051L890.041,469.051L786.854,309.769L786.854,469.051L708.169,469.051L708.169,214.107L860.857,214.107L959.36,367.483L1047.43,214.107L1181.88,214.107L1181.88,469.051L1059.93,469.051Z" style="fill:white;fill-rule:nonzero;"/>
            <path d="M1392.75,477.35C1304.13,477.35 1248.31,447.305 1226.79,427.161L1274.43,396.323C1297.98,414.901 1348.19,436.647 1392.75,436.647C1432.18,436.647 1451.64,429.537 1451.64,417.277C1451.64,394.739 1405.04,389.213 1357.4,378.933C1286.72,363.523 1233.97,344.55 1233.97,295.943C1233.97,235.853 1306.18,206.204 1397.35,206.204C1463.43,206.204 1507.99,219.255 1545.89,246.133L1499.79,275.385C1472.64,256.411 1425.02,246.133 1398.9,246.133C1356.89,246.133 1340.49,255.223 1340.49,267.087C1340.49,285.647 1377.38,287.628 1436.28,300.678C1509.52,316.881 1564.33,339.814 1564.33,389.213C1564.33,442.967 1499.28,477.35 1392.75,477.35Z" style="fill:white;fill-rule:nonzero;"/>
            <path d="M305.238,555.33C304.549,557.069 304.067,558.843 303.877,560.564C300.624,562.286 296.371,563.267 291.326,563.267C277.069,563.267 268.633,554.348 268.633,542.726C268.633,525.75 280.134,519.242 293.047,519.242C297.369,519.242 302.775,520.515 305.599,522.255C304.807,524.27 304.377,526.438 304.188,528.522L303.327,528.522C300.245,524.7 297.111,523.047 292.738,523.047C286.16,523.047 278.722,528.762 278.722,541.797C278.722,554.469 286.229,559.463 293.306,559.463C297.231,559.463 301.794,557.62 304.429,554.848L305.238,555.33Z" style="fill:white;fill-rule:nonzero;"/>
            <path d="M312.435,537.079C312.435,530.175 312.314,525.44 311.953,520.034C315.585,520.103 319.27,520.343 322.886,520.343C328.929,520.343 334.095,520.223 335.748,520.034C335.627,520.775 335.507,521.515 335.507,522.616C335.507,523.908 335.627,524.46 335.748,525.388C331.064,525.078 323.695,524.648 321.853,524.648C321.543,529.141 321.543,533.567 321.543,538.044C326.898,537.923 330.823,537.802 335.507,537.561C335.249,538.973 335.197,539.524 335.197,540.334C335.197,541.005 335.317,541.555 335.507,542.847C330.823,542.485 326.209,542.297 321.543,542.297C321.543,544.879 321.474,547.513 321.474,550.165C321.474,552.748 321.543,555.399 321.664,557.843C326.278,557.843 331.013,557.62 335.748,557.051C335.627,557.913 335.507,558.533 335.507,559.824C335.507,561.115 335.627,561.735 335.748,562.459C333.526,562.407 330.651,562.166 324.986,562.166C314.949,562.166 313.296,562.355 311.953,562.459C312.314,557.051 312.435,552.317 312.435,545.429L312.435,537.079Z" style="fill:white;fill-rule:nonzero;"/>
            <path d="M343.995,520.034C344.908,520.223 345.837,520.343 346.75,520.343C347.68,520.343 348.609,520.223 349.522,520.034C358.389,529.813 367.17,539.524 376.227,549.321C376.227,539.524 376.227,522.805 375.796,520.034C376.709,520.223 377.639,520.343 378.551,520.343C379.481,520.343 380.394,520.223 381.323,520.034C380.342,537.923 380.342,546.101 380.342,562.458C379.481,562.286 378.689,562.166 377.828,562.166C376.967,562.166 376.158,562.286 375.417,562.458C366.998,552.507 358.01,542.537 348.541,532.586C348.42,537.182 348.42,542.297 348.42,546.911C348.42,556.759 348.609,560.185 348.799,562.458C347.8,562.286 346.819,562.166 345.889,562.166C344.977,562.166 343.995,562.286 343.065,562.458C343.375,560.685 344.305,544.827 344.305,532.275C344.305,526.731 344.047,522.978 343.995,520.034Z" style="fill:white;fill-rule:nonzero;"/>
            <path d="M398.868,530.054C398.868,527.73 398.868,525.509 398.679,524.648C396.286,524.648 391.103,525.009 387.418,525.44C387.608,524.527 387.729,523.667 387.729,522.737C387.729,521.807 387.608,520.965 387.418,520.034C393.014,520.206 395.786,520.343 403.414,520.343C411.041,520.343 413.813,520.206 419.03,520.034C418.858,520.965 418.72,521.807 418.72,522.737C418.72,523.667 418.858,524.527 419.03,525.44C415.708,525.009 410.542,524.648 408.08,524.648C407.959,525.509 407.959,527.73 407.959,530.054L407.959,545.429C407.959,552.317 408.08,557.051 408.458,562.458C407.099,562.355 405.445,562.166 403.414,562.166C401.382,562.166 399.729,562.355 398.369,562.458C398.73,557.051 398.868,552.317 398.868,545.429L398.868,530.054Z" style="fill:white;fill-rule:nonzero;"/>
            <path d="M425.246,537.079C425.246,530.175 425.125,525.44 424.764,520.034C428.397,520.103 432.082,520.343 435.697,520.343C441.741,520.343 446.906,520.223 448.559,520.034C448.438,520.775 448.318,521.515 448.318,522.616C448.318,523.908 448.438,524.46 448.559,525.388C443.875,525.078 436.506,524.648 434.664,524.648C434.354,529.141 434.354,533.567 434.354,538.044C439.709,537.923 443.635,537.802 448.318,537.561C448.06,538.973 448.008,539.524 448.008,540.334C448.008,541.005 448.128,541.555 448.318,542.847C443.635,542.485 439.021,542.297 434.354,542.297C434.354,544.879 434.285,547.513 434.285,550.165C434.285,552.748 434.354,555.399 434.475,557.843C439.089,557.843 443.824,557.62 448.559,557.051C448.438,557.913 448.318,558.533 448.318,559.824C448.318,561.115 448.438,561.735 448.559,562.459C446.338,562.407 443.462,562.166 437.798,562.166C427.76,562.166 426.107,562.355 424.764,562.459C425.125,557.051 425.246,552.317 425.246,545.429L425.246,537.079Z" style="fill:white;fill-rule:nonzero;"/>
            <path d="M465.846,523.546C465.725,529.141 465.656,534.669 465.656,540.264C466.156,540.334 466.586,540.385 467.017,540.385C472.423,540.385 475.384,537.372 475.384,531.587C475.384,524.338 472.543,523.546 465.846,523.546ZM466.225,542.916L465.656,542.916L465.656,545.429C465.656,552.317 465.777,557.051 466.156,562.459C464.813,562.355 463.143,562.166 461.111,562.166C459.079,562.166 457.426,562.355 456.066,562.459C456.427,557.051 456.565,552.317 456.565,545.429L456.565,537.079C456.565,530.175 456.427,525.44 456.066,520.034C457.426,520.154 459.079,520.343 461.111,520.343C463.332,520.343 465.966,520.034 470.15,520.034C476.366,520.034 478.639,520.585 480.791,522.117C483.253,523.908 484.785,526.611 484.785,530.244C484.785,536.201 481.342,540.023 475.264,541.555C479.189,548.511 483.873,555.519 488.367,562.459C486.507,562.355 484.665,562.166 482.822,562.166C480.98,562.166 479.069,562.355 477.227,562.459L466.225,542.916Z" style="fill:white;fill-rule:nonzero;"/>
            <path d="M512.281,528.333C511.008,524.838 508.598,523.047 504.844,523.047C501.09,523.047 498.456,525.63 498.456,528.574C498.456,537.681 517.138,535.409 517.138,549.373C517.138,557.62 510.629,563.267 500.85,563.267C496.424,563.267 492.74,561.976 490.949,560.634C491.741,557.793 492.31,555.589 492.74,552.816L493.911,552.816C494.582,556.381 497.406,559.463 502.399,559.463C507.186,559.463 509.579,556.638 509.579,553.177C509.579,543.897 491.259,546.359 491.259,532.396C491.259,523.908 497.768,519.224 505.102,519.224C509.527,519.224 512.833,520.395 515.175,522.255C514.452,524.148 514.004,525.63 513.211,528.333L512.281,528.333Z" style="fill:white;fill-rule:nonzero;"/>
            <path d="M541.449,537.079C541.449,530.175 541.329,525.44 540.967,520.034C544.6,520.103 548.285,520.343 551.9,520.343C557.944,520.343 563.109,520.223 564.762,520.034C564.642,520.775 564.521,521.515 564.521,522.616C564.521,523.908 564.642,524.46 564.762,525.388C560.079,525.078 552.709,524.648 550.867,524.648C550.557,529.141 550.557,533.567 550.557,538.044C555.912,537.923 559.838,537.802 564.521,537.561C564.28,538.973 564.211,539.524 564.211,540.334C564.211,541.005 564.332,541.555 564.521,542.847C559.838,542.485 555.224,542.297 550.557,542.297L550.557,545.429C550.557,552.317 550.678,557.051 551.04,562.459C549.696,562.355 548.026,562.166 546.012,562.166C543.98,562.166 542.31,562.355 540.967,562.459C541.329,557.051 541.449,552.317 541.449,545.429L541.449,537.079Z" style="fill:white;fill-rule:nonzero;"/>
            <path d="M592.879,522.737C584.442,522.737 579.535,531.225 579.535,541.797C579.535,554.899 585.561,559.463 592.448,559.463C599.835,559.463 606.274,553.299 606.274,539.903C606.274,529.262 600.799,522.737 592.879,522.737ZM593.068,519.242C606.102,519.242 616.364,526.37 616.364,541.194C616.364,553.367 606.584,563.267 592.879,563.267C579.896,563.267 569.445,556.622 569.445,541.246C569.445,529.125 578.794,519.242 593.068,519.242Z" style="fill:white;fill-rule:nonzero;"/>
            <path d="M633.289,523.546C633.168,529.141 633.1,534.669 633.1,540.264C633.599,540.334 634.029,540.385 634.46,540.385C639.866,540.385 642.828,537.372 642.828,531.587C642.828,524.338 639.987,523.546 633.289,523.546ZM633.668,542.916L633.1,542.916L633.1,545.429C633.1,552.317 633.22,557.051 633.599,562.459C632.256,562.355 630.586,562.166 628.554,562.166C626.522,562.166 624.87,562.355 623.509,562.459C623.871,557.051 624.009,552.317 624.009,545.429L624.009,537.079C624.009,530.175 623.871,525.44 623.509,520.034C624.87,520.154 626.522,520.343 628.554,520.343C630.775,520.343 633.41,520.034 637.594,520.034C643.809,520.034 646.082,520.585 648.234,522.117C650.696,523.908 652.229,526.611 652.229,530.244C652.229,536.201 648.785,540.023 642.707,541.555C646.633,548.511 651.316,555.519 655.81,562.459C653.951,562.355 652.108,562.166 650.266,562.166C648.423,562.166 646.512,562.355 644.67,562.459L633.668,542.916Z" style="fill:white;fill-rule:nonzero;"/>
            <path d="M683.617,534.549C682.326,543.829 681.774,553.177 681.155,562.458C680.173,562.286 679.174,562.166 678.262,562.166C677.281,562.166 676.351,562.286 675.37,562.458C677.952,548.322 679.984,534.186 681.706,520.034C682.566,520.206 683.358,520.343 684.219,520.343C685.029,520.343 685.89,520.206 686.682,520.034C691.175,529.813 696.393,540.763 700.886,549.425C705.742,540.264 710.786,529.813 715.229,520.034C716.072,520.206 717.002,520.343 717.863,520.343C718.724,520.343 719.585,520.206 720.445,520.034C722.047,534.186 724.199,553.798 725.731,562.458C724.079,562.286 722.426,562.166 720.756,562.166C719.086,562.166 717.363,562.286 715.659,562.458C715.229,553.919 714.179,543.467 713.197,533.928L713.076,533.928C708.462,543.467 703.917,552.937 699.475,562.458C699.113,562.407 698.683,562.355 698.321,562.355C697.942,562.355 697.512,562.407 697.15,562.458C692.759,553.177 688.352,543.829 683.737,534.549L683.617,534.549Z" style="fill:white;fill-rule:nonzero;"/>
            <path d="M732.825,537.079C732.825,530.175 732.705,525.44 732.343,520.034C735.977,520.103 739.661,520.343 743.276,520.343C749.32,520.343 754.485,520.223 756.139,520.034C756.018,520.775 755.897,521.515 755.897,522.616C755.897,523.908 756.018,524.46 756.139,525.388C751.455,525.078 744.086,524.648 742.243,524.648C741.934,529.141 741.934,533.567 741.934,538.044C747.288,537.923 751.214,537.802 755.897,537.561C755.639,538.973 755.587,539.524 755.587,540.334C755.587,541.005 755.708,541.555 755.897,542.847C751.214,542.485 746.6,542.297 741.934,542.297C741.934,544.879 741.864,547.513 741.864,550.165C741.864,552.748 741.934,555.399 742.054,557.843C746.668,557.843 751.403,557.62 756.139,557.051C756.018,557.913 755.897,558.533 755.897,559.824C755.897,561.115 756.018,561.735 756.139,562.459C753.917,562.407 751.042,562.166 745.377,562.166C735.339,562.166 733.687,562.355 732.343,562.459C732.705,557.051 732.825,552.317 732.825,545.429L732.825,537.079Z" style="fill:white;fill-rule:nonzero;"/>
            <path d="M773.235,546.79C773.235,550.095 773.235,557.62 773.287,558.773C774.527,558.843 776.18,558.963 778.711,558.963C787.939,558.963 793.776,552.696 793.776,539.903C793.776,529.813 788.181,523.546 779.692,523.546C776.748,523.546 775.198,523.65 773.287,523.856C773.235,525.009 773.235,532.516 773.235,535.84L773.235,546.79ZM764.127,537.062C764.127,530.175 764.007,525.457 763.646,520.034C764.988,520.154 766.658,520.343 768.69,520.343C771.394,520.343 774.406,520.034 779.813,520.034C793.846,520.034 803.487,524.527 803.487,540.023C803.487,553.54 793.776,562.475 782.206,562.475C776.06,562.475 771.875,562.166 768.69,562.166C766.658,562.166 764.988,562.338 763.646,562.475C764.007,557.069 764.127,552.317 764.127,545.429L764.127,537.062Z" style="fill:white;fill-rule:nonzero;"/>
            <path d="M812.234,537.079C812.234,530.175 812.113,525.44 811.734,520.034C813.095,520.154 814.748,520.343 816.797,520.343C818.812,520.343 820.481,520.154 821.824,520.034C821.463,525.44 821.342,530.175 821.342,537.079L821.342,545.429C821.342,552.317 821.463,557.051 821.824,562.459C820.481,562.355 818.812,562.166 816.797,562.166C814.748,562.166 813.095,562.355 811.734,562.459C812.113,557.051 812.234,552.317 812.234,545.429L812.234,537.079Z" style="fill:white;fill-rule:nonzero;"/>
            <path d="M865.747,555.33C865.059,557.069 864.576,558.843 864.387,560.564C861.133,562.286 856.88,563.267 851.835,563.267C837.578,563.267 829.142,554.348 829.142,542.726C829.142,525.75 840.644,519.242 853.557,519.242C857.879,519.242 863.285,520.515 866.108,522.255C865.316,524.27 864.886,526.438 864.696,528.522L863.836,528.522C860.754,524.7 857.62,523.047 853.247,523.047C846.67,523.047 839.231,528.762 839.231,541.797C839.231,554.469 846.738,559.463 853.815,559.463C857.74,559.463 862.304,557.62 864.938,554.848L865.747,555.33Z" style="fill:white;fill-rule:nonzero;"/>
            <path d="M890.42,546.239C888.63,541.246 886.907,536.39 884.945,531.587C882.845,536.39 880.95,541.246 879.159,546.239L890.42,546.239ZM906.708,562.475C904.745,562.338 903.023,562.166 901.302,562.166C899.58,562.166 897.789,562.338 896.085,562.475C894.776,558.292 893.364,554.039 891.832,549.855C889.181,549.803 886.615,549.734 883.946,549.734C881.812,549.734 879.711,549.803 877.575,549.855C875.905,554.039 874.545,558.222 873.375,562.475C872.394,562.338 871.463,562.166 870.499,562.166C869.501,562.166 868.588,562.338 867.417,562.475C870.431,555.64 879.659,533.757 884.945,519.723C885.737,519.844 886.478,520.034 887.286,520.034C888.078,520.034 888.819,519.844 889.628,519.723C894.845,533.757 902.042,552.437 906.708,562.475Z" style="fill:white;fill-rule:nonzero;"/>
            <path d="M922.342,523.546C922.222,529.141 922.152,534.669 922.152,540.264C922.652,540.334 923.082,540.385 923.513,540.385C928.919,540.385 931.881,537.372 931.881,531.587C931.881,524.338 929.04,523.546 922.342,523.546ZM922.721,542.916L922.152,542.916L922.152,545.429C922.152,552.317 922.273,557.051 922.652,562.459C921.309,562.355 919.639,562.166 917.607,562.166C915.575,562.166 913.923,562.355 912.563,562.459C912.924,557.051 913.062,552.317 913.062,545.429L913.062,537.079C913.062,530.175 912.924,525.44 912.563,520.034C913.923,520.154 915.575,520.343 917.607,520.343C919.828,520.343 922.463,520.034 926.646,520.034C932.862,520.034 935.135,520.585 937.287,522.117C939.749,523.908 941.281,526.611 941.281,530.244C941.281,536.201 937.838,540.023 931.76,541.555C935.686,548.511 940.369,555.519 944.863,562.459C943.003,562.355 941.161,562.166 939.318,562.166C937.477,562.166 935.565,562.355 933.723,562.459L922.721,542.916Z" style="fill:white;fill-rule:nonzero;"/>
            <path d="M950.097,537.079C950.097,530.175 949.977,525.44 949.615,520.034C953.248,520.103 956.933,520.343 960.548,520.343C966.592,520.343 971.757,520.223 973.41,520.034C973.289,520.775 973.169,521.515 973.169,522.616C973.169,523.908 973.289,524.46 973.41,525.388C968.727,525.078 961.357,524.648 959.516,524.648C959.205,529.141 959.205,533.567 959.205,538.044C964.561,537.923 968.485,537.802 973.169,537.561C972.911,538.973 972.859,539.524 972.859,540.334C972.859,541.005 972.979,541.555 973.169,542.847C968.485,542.485 963.871,542.297 959.205,542.297C959.205,544.879 959.137,547.513 959.137,550.165C959.137,552.748 959.205,555.399 959.326,557.843C963.94,557.843 968.675,557.62 973.41,557.051C973.289,557.913 973.169,558.533 973.169,559.824C973.169,561.115 973.289,561.735 973.41,562.459C971.189,562.407 968.313,562.166 962.648,562.166C952.611,562.166 950.958,562.355 949.615,562.459C949.977,557.051 950.097,552.317 950.097,545.429L950.097,537.079Z" style="fill:white;fill-rule:nonzero;"/>
            <path d="M1013.75,536.081C1015.78,534.549 1018.66,531.415 1018.66,527.593C1018.66,524.889 1016.52,523.116 1014.3,523.116C1011.91,523.116 1009.95,524.648 1009.95,527.541C1009.95,530.054 1011.72,533.188 1013.75,536.081ZM1012.58,558.653C1015.04,558.653 1017.56,557.723 1019.16,556.259C1015.47,551.766 1011.79,547.22 1008.28,542.658C1005.45,544.827 1003.66,546.979 1003.66,550.113C1003.66,554.159 1006.93,558.653 1012.58,558.653ZM1020.88,558.412C1017.2,561.426 1011.91,563.267 1007.11,563.267C999.357,563.267 995.432,558.171 995.432,553.367C995.432,546.979 999.856,543.656 1006.49,540.264C1003.85,536.7 1002.01,533.498 1002.01,530.175C1002.01,523.047 1007.92,520.343 1013.32,520.343C1019.04,520.343 1023.29,522.926 1023.29,527.833C1023.29,531.828 1020.83,534.978 1015.4,538.301C1018.56,542.417 1021.81,546.239 1025.13,550.113C1027.22,547.582 1029.92,543.518 1032.45,538.233C1033.55,539.524 1034.72,540.763 1035.84,541.797C1033.12,545.929 1030.3,549.252 1027.29,552.558C1029.92,555.64 1033.62,559.704 1036.44,562.458C1033.43,562.407 1031.16,562.166 1028.89,562.166C1027.22,562.166 1025.56,562.407 1023.84,562.458L1020.88,558.412Z" style="fill:white;fill-rule:nonzero;"/>
            <path d="M1064.92,534.549C1063.63,543.829 1063.08,553.177 1062.46,562.458C1061.48,562.286 1060.48,562.166 1059.57,562.166C1058.59,562.166 1057.66,562.286 1056.68,562.458C1059.26,548.322 1061.29,534.186 1063.01,520.034C1063.87,520.206 1064.66,520.343 1065.53,520.343C1066.33,520.343 1067.2,520.206 1067.99,520.034C1072.48,529.813 1077.7,540.763 1082.19,549.425C1087.05,540.264 1092.09,529.813 1096.54,520.034C1097.38,520.206 1098.31,520.343 1099.17,520.343C1100.03,520.343 1100.89,520.206 1101.75,520.034C1103.35,534.186 1105.5,553.798 1107.04,562.458C1105.38,562.286 1103.73,562.166 1102.06,562.166C1100.39,562.166 1098.67,562.286 1096.96,562.458C1096.54,553.919 1095.48,543.467 1094.5,533.928L1094.38,533.928C1089.77,543.467 1085.22,552.937 1080.78,562.458C1080.42,562.407 1079.99,562.355 1079.63,562.355C1079.25,562.355 1078.82,562.407 1078.46,562.458C1074.07,553.177 1069.66,543.829 1065.04,534.549L1064.92,534.549Z" style="fill:white;fill-rule:nonzero;"/>
            <path d="M1114.15,537.079C1114.15,530.175 1114.03,525.44 1113.67,520.034C1117.3,520.103 1120.98,520.343 1124.6,520.343C1130.64,520.343 1135.81,520.223 1137.46,520.034C1137.34,520.775 1137.22,521.515 1137.22,522.616C1137.22,523.908 1137.34,524.46 1137.46,525.388C1132.78,525.078 1125.41,524.648 1123.57,524.648C1123.26,529.141 1123.26,533.567 1123.26,538.044C1128.61,537.923 1132.54,537.802 1137.22,537.561C1136.96,538.973 1136.91,539.524 1136.91,540.334C1136.91,541.005 1137.03,541.555 1137.22,542.847C1132.54,542.485 1127.92,542.297 1123.26,542.297C1123.26,544.879 1123.19,547.513 1123.19,550.165C1123.19,552.748 1123.26,555.399 1123.38,557.843C1127.99,557.843 1132.73,557.62 1137.46,557.051C1137.34,557.913 1137.22,558.533 1137.22,559.824C1137.22,561.115 1137.34,561.735 1137.46,562.459C1135.24,562.407 1132.37,562.166 1126.7,562.166C1116.66,562.166 1115.01,562.355 1113.67,562.459C1114.03,557.051 1114.15,552.317 1114.15,545.429L1114.15,537.079Z" style="fill:white;fill-rule:nonzero;"/>
            <path d="M1154.56,546.79C1154.56,550.095 1154.56,557.62 1154.61,558.773C1155.85,558.843 1157.5,558.963 1160.03,558.963C1169.26,558.963 1175.1,552.696 1175.1,539.903C1175.1,529.813 1169.5,523.546 1161.02,523.546C1158.07,523.546 1156.52,523.65 1154.61,523.856C1154.56,525.009 1154.56,532.516 1154.56,535.84L1154.56,546.79ZM1145.45,537.062C1145.45,530.175 1145.33,525.457 1144.97,520.034C1146.31,520.154 1147.98,520.343 1150.01,520.343C1152.72,520.343 1155.73,520.034 1161.14,520.034C1175.17,520.034 1184.81,524.527 1184.81,540.023C1184.81,553.54 1175.1,562.475 1163.53,562.475C1157.38,562.475 1153.2,562.166 1150.01,562.166C1147.98,562.166 1146.31,562.338 1144.97,562.475C1145.33,557.069 1145.45,552.317 1145.45,545.429L1145.45,537.062Z" style="fill:white;fill-rule:nonzero;"/>
            <path d="M1193.56,537.079C1193.56,530.175 1193.44,525.44 1193.06,520.034C1194.42,520.154 1196.07,520.343 1198.12,520.343C1200.13,520.343 1201.8,520.154 1203.15,520.034C1202.79,525.44 1202.67,530.175 1202.67,537.079L1202.67,545.429C1202.67,552.317 1202.79,557.051 1203.15,562.459C1201.8,562.355 1200.13,562.166 1198.12,562.166C1196.07,562.166 1194.42,562.355 1193.06,562.459C1193.44,557.051 1193.56,552.317 1193.56,545.429L1193.56,537.079Z" style="fill:white;fill-rule:nonzero;"/>
            <path d="M1247.07,555.33C1246.38,557.069 1245.9,558.843 1245.71,560.564C1242.46,562.286 1238.2,563.267 1233.16,563.267C1218.9,563.267 1210.46,554.348 1210.46,542.726C1210.46,525.75 1221.97,519.242 1234.88,519.242C1239.2,519.242 1244.61,520.515 1247.43,522.255C1246.64,524.27 1246.21,526.438 1246.02,528.522L1245.16,528.522C1242.08,524.7 1238.94,523.047 1234.57,523.047C1227.99,523.047 1220.55,528.762 1220.55,541.797C1220.55,554.469 1228.06,559.463 1235.14,559.463C1239.06,559.463 1243.63,557.62 1246.26,554.848L1247.07,555.33Z" style="fill:white;fill-rule:nonzero;"/>
            <path d="M1271.73,546.239C1269.94,541.246 1268.21,536.39 1266.25,531.587C1264.15,536.39 1262.26,541.246 1260.47,546.239L1271.73,546.239ZM1288.01,562.475C1286.05,562.338 1284.33,562.166 1282.61,562.166C1280.89,562.166 1279.1,562.338 1277.39,562.475C1276.08,558.292 1274.67,554.039 1273.14,549.855C1270.49,549.803 1267.92,549.734 1265.25,549.734C1263.12,549.734 1261.02,549.803 1258.88,549.855C1257.21,554.039 1255.85,558.222 1254.68,562.475C1253.7,562.338 1252.77,562.166 1251.81,562.166C1250.81,562.166 1249.89,562.338 1248.72,562.475C1251.74,555.64 1260.96,533.757 1266.25,519.723C1267.04,519.844 1267.78,520.034 1268.59,520.034C1269.38,520.034 1270.13,519.844 1270.93,519.723C1276.15,533.757 1283.35,552.437 1288.01,562.475Z" style="fill:white;fill-rule:nonzero;"/>
            <path d="M1294.63,537.079C1294.63,530.175 1294.51,525.44 1294.13,520.034C1295.49,520.154 1297.14,520.343 1299.19,520.343C1301.2,520.343 1302.87,520.154 1304.22,520.034C1303.85,525.44 1303.73,530.175 1303.73,537.079L1303.73,545.429C1303.73,552.317 1303.85,557.051 1304.22,562.459C1302.87,562.355 1301.2,562.166 1299.19,562.166C1297.14,562.166 1295.49,562.355 1294.13,562.459C1294.51,557.051 1294.63,552.317 1294.63,545.429L1294.63,537.079Z" style="fill:white;fill-rule:nonzero;"/>
            <path d="M1323.95,546.79C1323.95,550.095 1323.95,557.62 1324,558.773C1325.24,558.843 1326.89,558.963 1329.42,558.963C1338.65,558.963 1344.49,552.696 1344.49,539.903C1344.49,529.813 1338.89,523.546 1330.4,523.546C1327.46,523.546 1325.91,523.65 1324,523.856C1323.95,525.009 1323.95,532.516 1323.95,535.84L1323.95,546.79ZM1314.84,537.062C1314.84,530.175 1314.72,525.457 1314.36,520.034C1315.7,520.154 1317.37,520.343 1319.4,520.343C1322.11,520.343 1325.12,520.034 1330.53,520.034C1344.56,520.034 1354.2,524.527 1354.2,540.023C1354.2,553.54 1344.49,562.475 1332.92,562.475C1326.77,562.475 1322.59,562.166 1319.4,562.166C1317.37,562.166 1315.7,562.338 1314.36,562.475C1314.72,557.069 1314.84,552.317 1314.84,545.429L1314.84,537.062Z" style="fill:white;fill-rule:nonzero;"/>
            <path d="M1397.95,528.333C1396.68,524.838 1394.27,523.047 1390.51,523.047C1386.76,523.047 1384.12,525.63 1384.12,528.574C1384.12,537.681 1402.81,535.409 1402.81,549.373C1402.81,557.62 1396.3,563.267 1386.52,563.267C1382.09,563.267 1378.41,561.976 1376.62,560.634C1377.41,557.793 1377.98,555.589 1378.41,552.816L1379.58,552.816C1380.25,556.381 1383.07,559.463 1388.07,559.463C1392.85,559.463 1395.25,556.638 1395.25,553.177C1395.25,543.897 1376.93,546.359 1376.93,532.396C1376.93,523.908 1383.44,519.224 1390.77,519.224C1395.2,519.224 1398.5,520.395 1400.84,522.255C1400.12,524.148 1399.67,525.63 1398.88,528.333L1397.95,528.333Z" style="fill:white;fill-rule:nonzero;"/>
            <path d="M1410.02,537.079C1410.02,530.175 1409.9,525.44 1409.54,520.034C1413.17,520.103 1416.86,520.343 1420.47,520.343C1426.51,520.343 1431.68,520.223 1433.33,520.034C1433.21,520.775 1433.09,521.515 1433.09,522.616C1433.09,523.908 1433.21,524.46 1433.33,525.388C1428.65,525.078 1421.28,524.648 1419.44,524.648C1419.13,529.141 1419.13,533.567 1419.13,538.044C1424.48,537.923 1428.41,537.802 1433.09,537.561C1432.83,538.973 1432.78,539.524 1432.78,540.334C1432.78,541.005 1432.9,541.555 1433.09,542.847C1428.41,542.485 1423.79,542.297 1419.13,542.297C1419.13,544.879 1419.06,547.513 1419.06,550.165C1419.06,552.748 1419.13,555.399 1419.25,557.843C1423.86,557.843 1428.6,557.62 1433.33,557.051C1433.21,557.913 1433.09,558.533 1433.09,559.824C1433.09,561.115 1433.21,561.735 1433.33,562.459C1431.11,562.407 1428.24,562.166 1422.57,562.166C1412.53,562.166 1410.88,562.355 1409.54,562.459C1409.9,557.051 1410.02,552.317 1410.02,545.429L1410.02,537.079Z" style="fill:white;fill-rule:nonzero;"/>
            <path d="M1450.62,523.546C1450.5,529.141 1450.43,534.669 1450.43,540.264C1450.93,540.334 1451.36,540.385 1451.79,540.385C1457.2,540.385 1460.16,537.372 1460.16,531.587C1460.16,524.338 1457.32,523.546 1450.62,523.546ZM1451,542.916L1450.43,542.916L1450.43,545.429C1450.43,552.317 1450.55,557.051 1450.93,562.459C1449.59,562.355 1447.92,562.166 1445.88,562.166C1443.85,562.166 1442.2,562.355 1440.84,562.459C1441.2,557.051 1441.34,552.317 1441.34,545.429L1441.34,537.079C1441.34,530.175 1441.2,525.44 1440.84,520.034C1442.2,520.154 1443.85,520.343 1445.88,520.343C1448.11,520.343 1450.74,520.034 1454.92,520.034C1461.14,520.034 1463.41,520.585 1465.56,522.117C1468.03,523.908 1469.56,526.611 1469.56,530.244C1469.56,536.201 1466.12,540.023 1460.04,541.555C1463.96,548.511 1468.65,555.519 1473.14,562.459C1471.28,562.355 1469.44,562.166 1467.6,562.166C1465.75,562.166 1463.84,562.355 1462,562.459L1451,542.916Z" style="fill:white;fill-rule:nonzero;"/>
            <path d="M1507.13,520.034C1508.01,520.223 1508.92,520.343 1509.85,520.343C1510.76,520.343 1511.69,520.223 1512.55,520.034C1508.49,529.693 1500.5,548.391 1495.7,562.458C1494.78,562.355 1493.92,562.166 1492.99,562.166C1492.06,562.166 1491.15,562.355 1490.29,562.458C1486.47,551.956 1477.62,529.434 1473.62,520.034C1475.52,520.223 1477.36,520.343 1479.15,520.343C1480.92,520.343 1482.78,520.223 1484.56,520.034C1487.33,529.193 1491.75,540.643 1495.51,550.905C1499.76,540.643 1503.94,529.555 1507.13,520.034Z" style="fill:white;fill-rule:nonzero;"/>
            <path d="M1519.08,537.079C1519.08,530.175 1518.96,525.44 1518.58,520.034C1519.94,520.154 1521.59,520.343 1523.64,520.343C1525.65,520.343 1527.33,520.154 1528.67,520.034C1528.31,525.44 1528.19,530.175 1528.19,537.079L1528.19,545.429C1528.19,552.317 1528.31,557.051 1528.67,562.459C1527.33,562.355 1525.65,562.166 1523.64,562.166C1521.59,562.166 1519.94,562.355 1518.58,562.459C1518.96,557.051 1519.08,552.317 1519.08,545.429L1519.08,537.079Z" style="fill:white;fill-rule:nonzero;"/>
            <path d="M1572.57,555.33C1571.88,557.069 1571.4,558.843 1571.21,560.564C1567.96,562.286 1563.71,563.267 1558.66,563.267C1544.41,563.267 1535.97,554.348 1535.97,542.726C1535.97,525.75 1547.47,519.242 1560.38,519.242C1564.71,519.242 1570.11,520.515 1572.93,522.255C1572.14,524.27 1571.71,526.438 1571.52,528.522L1570.66,528.522C1567.58,524.7 1564.45,523.047 1560.07,523.047C1553.5,523.047 1546.06,528.762 1546.06,541.797C1546.06,554.469 1553.56,559.463 1560.64,559.463C1564.57,559.463 1569.13,557.62 1571.76,554.848L1572.57,555.33Z" style="fill:white;fill-rule:nonzero;"/>
            <path d="M1579.79,537.079C1579.79,530.175 1579.67,525.44 1579.31,520.034C1582.94,520.103 1586.62,520.343 1590.24,520.343C1596.28,520.343 1601.45,520.223 1603.1,520.034C1602.98,520.775 1602.86,521.515 1602.86,522.616C1602.86,523.908 1602.98,524.46 1603.1,525.388C1598.42,525.078 1591.05,524.648 1589.21,524.648C1588.9,529.141 1588.9,533.567 1588.9,538.044C1594.25,537.923 1598.18,537.802 1602.86,537.561C1602.6,538.973 1602.55,539.524 1602.55,540.334C1602.55,541.005 1602.67,541.555 1602.86,542.847C1598.18,542.485 1593.56,542.297 1588.9,542.297C1588.9,544.879 1588.83,547.513 1588.83,550.165C1588.83,552.748 1588.9,555.399 1589.02,557.843C1593.63,557.843 1598.37,557.62 1603.1,557.051C1602.98,557.913 1602.86,558.533 1602.86,559.824C1602.86,561.115 1602.98,561.735 1603.1,562.459C1600.88,562.407 1598,562.166 1592.34,562.166C1582.3,562.166 1580.65,562.355 1579.31,562.459C1579.67,557.051 1579.79,552.317 1579.79,545.429L1579.79,537.079Z" style="fill:white;fill-rule:nonzero;"/>
            <clipPath id="_clip2">
                <rect x="1607.73" y="519.224" width="26.45" height="44.354"/>
            </clipPath>
            <g clip-path="url(#_clip2)">
                <path d="M1629.24,528.333C1627.96,524.838 1625.55,523.047 1621.8,523.047C1618.05,523.047 1615.41,525.63 1615.41,528.574C1615.41,537.681 1634.09,535.409 1634.09,549.373C1634.09,557.62 1627.58,563.267 1617.8,563.267C1613.38,563.267 1609.7,561.976 1607.9,560.634C1608.7,557.793 1609.26,555.589 1609.7,552.816L1610.87,552.816C1611.54,556.381 1614.36,559.463 1619.35,559.463C1624.14,559.463 1626.53,556.638 1626.53,553.177C1626.53,543.897 1608.21,546.359 1608.21,532.396C1608.21,523.908 1614.72,519.224 1622.06,519.224C1626.48,519.224 1629.79,520.395 1632.13,522.255C1631.41,524.148 1630.96,525.63 1630.17,528.333L1629.24,528.333Z" style="fill:white;fill-rule:nonzero;"/>
            </g>
        </g>
    </g>
</svg>
