<?xml version="1.0" encoding="UTF-8" standalone="no"?>
<!DOCTYPE svg PUBLIC "-//W3C//DTD SVG 1.1//EN" "http://www.w3.org/Graphics/SVG/1.1/DTD/svg11.dtd">
<svg width="100%" height="100%" viewBox="0 0 480 166" version="1.1" xmlns="http://www.w3.org/2000/svg" xmlns:xlink="http://www.w3.org/1999/xlink" xml:space="preserve" xmlns:serif="http://www.serif.com/" style="fill-rule:evenodd;clip-rule:evenodd;stroke-linejoin:round;stroke-miterlimit:1.41421;">
    <g transform="matrix(1,0,0,1,-4239.06,-11015.5)">
        <g transform="matrix(4.16667,0,0,4.16667,0,0)">
            <g>
                <g transform="matrix(1,0,0,1,1132.3,2662.6)">
                    <path d="M0,-6.767C-1.989,-6.767 -3.978,-6.757 -5.967,-6.769C-7.957,-6.782 -9.946,-6.828 -11.936,-6.83C-12.32,-6.83 -12.481,-6.943 -12.593,-7.312C-13.249,-9.481 -13.931,-11.641 -14.605,-13.803C-15.119,-15.45 -15.634,-17.095 -16.194,-18.888C-16.289,-18.633 -16.337,-18.513 -16.379,-18.391C-17.608,-14.749 -18.849,-11.111 -20.052,-7.46C-20.202,-7.004 -20.413,-6.916 -20.84,-6.927C-22.717,-6.977 -24.595,-6.997 -26.473,-7.024C-26.599,-7.026 -26.726,-6.998 -26.987,-6.97C-22.858,-4.469 -19.149,-1.653 -15.752,1.566C-12.359,4.782 -9.286,8.281 -6.596,12.121C-6.581,11.965 -6.612,11.842 -6.65,11.721C-7.746,8.193 -8.834,4.662 -9.95,1.14C-10.08,0.73 -10.018,0.526 -9.666,0.28C-6.577,-1.888 -3.502,-4.077 -0.424,-6.26C-0.26,-6.376 -0.101,-6.501 0.06,-6.622C0.04,-6.67 0.02,-6.718 0,-6.767" style="fill:white;fill-rule:nonzero;"/>
                </g>
                <g transform="matrix(1,0,0,1,1100.27,2674.11)">
                    <path d="M0,-18.694C-10.325,-22.558 -20.809,-22.76 -31.352,-19.665C-8.086,-21.852 11.005,-13.942 26.075,4.066C20.072,-6.721 11.479,-14.398 0,-18.694" style="fill:white;fill-rule:nonzero;"/>
                </g>
                <g transform="matrix(1,0,0,1,1090.74,2674.42)">
                    <path d="M0,-17.362C-13.489,-20.159 -26.486,-18.494 -38.926,-12.553C-26.312,-16.925 -13.457,-17.854 -0.386,-15.123C12.708,-12.386 24.085,-6.304 33.865,2.797C24.82,-7.689 13.58,-14.547 0,-17.362" style="fill:white;fill-rule:nonzero;"/>
                </g>
                <g transform="matrix(1,0,0,1,1070.89,2677.01)">
                    <path d="M0,-10.504L4.051,-10.504L4.051,2.529L7.062,2.529L7.062,-10.538L11.091,-10.538L11.091,-13.033L0,-13.033L0,-10.504Z" style="fill:white;fill-rule:nonzero;"/>
                </g>
                <g transform="matrix(1,0,0,1,1090.36,2670.03)">
                    <path d="M0,11.76C-0.838,12.03 -1.714,12.183 -2.521,12.373C-3.383,12.231 -4.164,12.162 -4.909,11.963C-5.721,11.745 -6.145,11.172 -6.153,10.507C-6.161,9.808 -5.736,9.217 -4.92,8.975C-3.289,8.489 -1.652,8.572 -0.049,9.115C0.531,9.312 0.937,9.728 0.95,10.391C0.963,11.066 0.607,11.565 0,11.76M-5.651,2.241C-5.665,0.529 -4.57,-0.54 -2.806,-0.536C-1.021,-0.532 -0.039,0.452 -0.047,2.226C-0.057,3.969 -1.026,4.906 -2.817,4.906C-4.564,4.904 -5.638,3.894 -5.651,2.241M0.196,7.874C-0.586,7.673 -1.413,7.622 -2.223,7.546C-3.128,7.46 -4.043,7.467 -4.942,7.349C-5.55,7.269 -5.798,6.886 -5.684,6.448C-5.555,5.949 -4.922,5.611 -4.441,5.668C-3.62,5.766 -2.778,5.898 -1.966,5.815C-0.108,5.624 1.036,4.356 1.191,2.493C1.271,1.533 1.043,0.656 0.382,-0.237C1.011,-0.421 1.546,-0.577 2.104,-0.739L2.104,-1.72C1.349,-1.744 0.749,-1.454 0.169,-1.065C0.023,-0.968 -0.254,-0.912 -0.392,-0.985C-1.244,-1.437 -2.144,-1.594 -3.09,-1.513C-4.724,-1.375 -6.062,-0.741 -6.648,0.899C-7.227,2.515 -6.873,3.936 -5.526,5.063C-5.508,5.077 -5.515,5.123 -5.509,5.169C-6.294,5.54 -6.932,6.024 -6.95,7.017C-6.966,7.894 -6.344,8.168 -5.628,8.432C-5.909,8.583 -6.137,8.693 -6.352,8.823C-6.898,9.156 -7.289,9.604 -7.386,10.266C-7.572,11.517 -7.042,12.431 -5.718,12.856C-3.7,13.504 -1.647,13.494 0.365,12.822C1.65,12.394 2.255,11.461 2.219,10.213C2.185,9.053 1.519,8.214 0.196,7.874" style="fill:white;fill-rule:nonzero;"/>
                </g>
                <g transform="matrix(1,0,0,1,1026.88,2672.65)">
                    <path d="M0,-1.572C-0.134,-1.544 -0.204,-1.517 -0.274,-1.516C-2.767,-1.513 -5.26,-1.52 -7.752,-1.504C-8.182,-1.502 -8.172,-1.74 -8.172,-2.039C-8.171,-3.843 -8.177,-5.647 -8.181,-7.452C-8.182,-7.781 -8.181,-8.11 -8.181,-8.463L-9.507,-8.463L-9.507,6.891L-8.142,6.891L-8.142,-0.331L0.003,-0.331L0.003,6.862L1.351,6.862L1.351,-8.459L0,-8.459L0,-1.572Z" style="fill:white;fill-rule:nonzero;"/>
                </g>
                <g transform="matrix(1,0,0,1,0,2453.57)">
                    <rect x="1067.21" y="210.464" width="2.904" height="15.506" style="fill:white;"/>
                </g>
                <g transform="matrix(1,0,0,1,1045.22,2671.48)">
                    <path d="M0,5.274C-0.002,5.401 -0.094,5.557 -0.192,5.648C-1.098,6.48 -2.125,7.08 -3.368,7.249C-4.278,7.372 -5.109,6.989 -5.442,6.285C-5.81,5.507 -5.63,4.457 -5.017,3.864C-4.872,3.722 -4.71,3.591 -4.538,3.485C-3.156,2.634 -1.598,2.313 0.009,1.933C0.009,3.089 0.015,4.182 0,5.274M1.234,-0.086C1.174,-1.823 0.171,-2.821 -1.556,-2.963C-1.778,-2.982 -2.001,-2.993 -2.224,-3C-4.128,-3.067 -5.724,-2.124 -6.374,-0.513C-6.12,-0.363 -5.859,-0.208 -5.595,-0.051C-5.396,-0.302 -5.242,-0.51 -5.073,-0.706C-4.046,-1.904 -2.752,-2.24 -1.251,-1.866C-0.551,-1.691 -0.106,-1.229 -0.003,-0.522C0.065,-0.055 0.01,0.43 0.01,0.891C-1.22,1.208 -2.443,1.46 -3.62,1.849C-4.4,2.108 -5.178,2.476 -5.844,2.954C-6.845,3.67 -7.177,5.257 -6.733,6.507C-6.351,7.585 -5.331,8.256 -4.03,8.298C-2.717,8.341 -1.541,7.962 -0.488,7.183C-0.335,7.07 -0.178,6.964 0.027,6.821C0.1,7.295 0.157,7.673 0.215,8.052L1.266,8.052C1.266,6.822 1.269,5.654 1.265,4.486C1.261,2.961 1.287,1.436 1.234,-0.086" style="fill:white;fill-rule:nonzero;"/>
                </g>
                <g transform="matrix(1,0,0,1,1061.47,2675.16)">
                    <path d="M0,-6.618C-1.603,-6.901 -2.971,-6.424 -4.113,-5.272C-4.244,-5.139 -4.391,-5.023 -4.642,-4.8L-4.642,-10.982L-5.827,-10.982L-5.827,4.362L-4.603,4.362L-4.603,3.733C-4.605,1.445 -4.609,-0.842 -4.606,-3.13C-4.606,-3.308 -4.622,-3.558 -4.518,-3.654C-3.72,-4.397 -2.994,-5.253 -1.892,-5.575C-0.338,-6.03 0.774,-5.333 1.019,-3.751C1.07,-3.422 1.076,-3.084 1.076,-2.75C1.08,-0.575 1.075,1.601 1.074,3.777L1.074,4.364L2.264,4.364C2.264,1.515 2.347,-1.309 2.23,-4.125C2.17,-5.57 1.279,-6.391 0,-6.618" style="fill:white;fill-rule:nonzero;"/>
                </g>
                <g transform="matrix(1,0,0,1,1036.5,2675.26)">
                    <path d="M0,-2.148L-6.191,-2.148C-6.233,-4.137 -4.788,-5.794 -3.064,-5.785C-1.292,-5.776 0.095,-4.149 0,-2.148M0.934,-3.812C0.343,-5.749 -0.916,-6.692 -2.849,-6.775C-4.687,-6.855 -6.17,-5.914 -6.921,-4.145C-7.646,-2.437 -7.654,-0.666 -7.23,1.108C-6.741,3.161 -5.403,4.316 -3.392,4.501C-1.154,4.707 0.534,3.78 1.433,1.817C1.11,1.648 0.786,1.477 0.449,1.3C0.2,1.64 0.015,2.004 -0.269,2.256C-0.732,2.667 -1.21,3.164 -1.771,3.341C-2.93,3.708 -4.079,3.515 -4.976,2.611C-5.981,1.598 -6.213,0.308 -6.211,-1.125L1.453,-1.125C1.274,-2.078 1.19,-2.971 0.934,-3.812" style="fill:white;fill-rule:nonzero;"/>
                </g>
                <g transform="matrix(1,0,0,1,1099.67,2671.56)">
                    <path d="M0,5.031C-0.402,6.416 -1.411,7.119 -2.813,7.121C-4.249,7.123 -5.206,6.464 -5.649,5.067C-6.18,3.394 -6.177,1.692 -5.665,0.018C-5.229,-1.404 -4.254,-2.073 -2.794,-2.067C-1.394,-2.061 -0.401,-1.365 0.006,0.036C0.242,0.848 0.312,1.709 0.458,2.555C0.308,3.395 0.231,4.235 0,5.031M-2.497,-3.051C-4.656,-3.137 -6.09,-2.308 -6.77,-0.455C-7.498,1.53 -7.5,3.557 -6.773,5.546C-6.139,7.281 -4.77,8.148 -2.833,8.158C-0.909,8.168 0.528,7.26 1.124,5.495C1.439,4.558 1.541,3.55 1.727,2.637C1.557,1.654 1.48,0.759 1.239,-0.09C0.717,-1.934 -0.654,-2.978 -2.497,-3.051" style="fill:white;fill-rule:nonzero;"/>
                </g>
                <g transform="matrix(1,0,0,1,1108.12,2678.92)">
                    <path d="M0,-9.511C-0.6,-7.598 -1.267,-5.706 -1.91,-3.807C-2.175,-3.024 -2.445,-2.242 -2.747,-1.362C-2.842,-1.63 -2.899,-1.786 -2.952,-1.943C-3.76,-4.355 -4.568,-6.767 -5.376,-9.179C-5.736,-10.255 -5.735,-10.255 -6.976,-10.159C-6.959,-10.057 -6.958,-9.981 -6.935,-9.912C-5.784,-6.521 -4.626,-3.132 -3.483,0.262C-3.309,0.778 -2.907,0.527 -2.597,0.577C-2.302,0.624 -2.094,0.558 -1.976,0.203C-1.267,-1.928 -0.527,-4.048 0.201,-6.172C0.651,-7.486 1.097,-8.8 1.562,-10.162C1.341,-10.175 1.177,-10.169 1.019,-10.196C0.458,-10.289 0.18,-10.084 0,-9.511" style="fill:white;fill-rule:nonzero;"/>
                </g>
                <g transform="matrix(1,0,0,1,1054.9,2666.39)">
                    <path d="M0,12.163C-0.189,12.2 -0.386,12.244 -0.585,12.278C-1.912,12.506 -2.295,12.188 -2.297,10.862C-2.299,8.556 -2.301,6.25 -2.303,3.944L-2.303,3.291L0.049,3.291L0.049,2.299L-2.304,2.299L-2.304,-1.225L-3.509,-1.225C-3.526,-1.094 -3.547,-1.004 -3.547,-0.914C-3.553,-0.003 -3.568,0.908 -3.552,1.819C-3.545,2.182 -3.665,2.325 -4.032,2.301C-4.397,2.276 -4.765,2.295 -5.146,2.295L-5.146,3.321L-3.562,3.321L-3.562,3.977C-3.565,5.781 -3.573,7.586 -3.57,9.39C-3.569,10.226 -3.581,11.064 -3.528,11.897C-3.481,12.642 -3.111,13.098 -2.403,13.237C-1.864,13.344 -1.292,13.388 -0.747,13.333C0.176,13.239 0.173,13.197 0.078,12.262C0.075,12.232 0.036,12.206 0,12.163" style="fill:white;fill-rule:nonzero;"/>
                </g>
                <g transform="matrix(1,0,0,1,0,2453.68)">
                    <rect x="1047.87" y="210.492" width="1.216" height="15.333" style="fill:white;"/>
                </g>
                <g transform="matrix(1,0,0,1,1081.55,2679.44)">
                    <path d="M0,-1.792C-0.505,-1.814 -1.011,-1.804 -1.539,-1.804L-1.539,0.022L0.222,0.022C0.222,-0.519 0.233,-1.031 0.212,-1.543C0.208,-1.633 0.078,-1.789 0,-1.792" style="fill:white;fill-rule:nonzero;"/>
                </g>
            </g>
        </g>
    </g>
</svg>
