<svg width="167" height="167" viewBox="0 0 167 167" xmlns="http://www.w3.org/2000/svg"><title>Shapewhite</title><path d="M80.625.003v.204l.318.023c.295 0 .523.09.682.25.113.113.159.431.136.909l-.09 5.021c0 .432-.046.728-.137.841-.16.205-.409.295-.75.295l-.295-.022v.227l3.499.068v-.227h-.318c-.296 0-.523-.091-.682-.25-.114-.137-.159-.432-.136-.91l.045-2.271c.046 0 .114 0 .182.023h.636l2.727 3.68 2.203.023v-.204c-.431-.068-.795-.16-1.09-.341-.273-.182-.59-.523-.977-1.045l-1.659-2.25c.704-.136 1.227-.363 1.545-.704.34-.364.523-.75.523-1.25 0-.431-.114-.818-.41-1.136a2.01 2.01 0 0 0-1.044-.681c-.41-.137-1.046-.205-1.909-.228l-3-.045h.001zM78.49.139l-6.316.523v.227l.295-.023c.34-.045.591.023.75.16.114.09.182.386.25.886l.477 5.021c.022.364.022.614 0 .75a.581.581 0 0 1-.227.295c-.182.091-.364.16-.546.16l-.295.045.023.204 6.316-.522.523-2-.25.023c-.227.5-.455.863-.682 1.113-.181.205-.363.341-.568.41-.204.09-.522.136-.977.181l-1.386.114c-.25.023-.386 0-.477-.023a.42.42 0 0 1-.181-.159c-.046-.068-.069-.273-.114-.614l-.25-2.545 1.817-.159c.342-.022.591 0 .773.046a.74.74 0 0 1 .387.295c.068.091.159.318.227.705l.227-.023-.25-2.659-.227.023c.023.409-.068.728-.273.91-.136.136-.431.249-.909.272l-1.817.159-.273-3.045 2.249-.182c.409-.022.681-.022.863 0 .205.069.364.182.477.318.137.137.25.432.364.818l.25-.023-.25-1.68zm10.225 0l-.023.205c.25.045.432.113.568.204.137.091.25.182.341.318.045.091.136.296.25.659l2.18 6.976.228.045 3.704-6.225c.204-.364.431-.637.681-.796.16-.09.387-.159.682-.181l.023-.205-2.5-.295-.022.204c.045.023.068.045.113.045.25.069.455.16.546.273.113.114.158.227.136.34-.023.16-.159.456-.409.887l-2.5 4.204-1.476-4.726c-.137-.432-.182-.727-.16-.932a.4.4 0 0 1 .205-.295c.136-.091.386-.114.75-.114l.022-.204-3.34-.387zm-4.817.34c.522.024.931.183 1.25.478.295.318.454.704.454 1.204a1.612 1.612 0 0 1-.614 1.205c-.408.318-1 .454-1.772.454-.023 0-.068 0-.114-.023h-.205l.068-3.204c.387-.068.705-.113.932-.113zM69.81.867l-.227.023c0 .204-.046.318-.069.386a.543.543 0 0 1-.25.137c-.09.023-.272 0-.5-.046-.522-.114-1-.136-1.431-.068-.682.136-1.227.432-1.59.909-.364.477-.478.977-.387 1.522.068.318.205.591.41.84.204.228.477.433.818.592.318.159.886.363 1.658.613.773.227 1.227.386 1.409.477.273.114.477.273.613.432.16.182.25.364.296.545.068.341-.023.659-.25.954-.25.318-.614.5-1.114.591-.431.068-.84.068-1.227-.068a1.711 1.711 0 0 1-.931-.523c-.25-.25-.455-.613-.682-1.159l-.227.046.545 2.613.228-.045c-.023-.182 0-.296.045-.364a.33.33 0 0 1 .204-.137c.114-.022.364 0 .773.046.432.068.682.09.818.068.227 0 .432-.022.682-.068.727-.136 1.295-.454 1.703-.954.386-.5.523-1.046.41-1.614a1.856 1.856 0 0 0-.41-.817c-.204-.273-.477-.455-.795-.614-.318-.159-.886-.363-1.726-.613-1.023-.295-1.682-.568-1.977-.796a.91.91 0 0 1-.387-.59c-.068-.296 0-.591.227-.887.227-.272.546-.477.978-.545a2.228 2.228 0 0 1 1.09.068c.387.114.705.318.955.568.25.273.454.637.613 1.137l.227-.046L69.81.866zm28.81.591l-.068.205.296.045c.182.045.363.114.522.25.091.09.16.182.182.273.023.136-.023.386-.114.772L98.325 7.91c-.09.454-.204.727-.318.84-.205.137-.455.182-.796.114l-.272-.045-.046.204 3.409.705.067-.227-.295-.046a1.295 1.295 0 0 1-.5-.25.507.507 0 0 1-.204-.295c0-.114.022-.386.113-.75l1.114-4.93c.09-.432.204-.728.34-.819.183-.159.432-.182.773-.114l.273.046.068-.205-3.43-.681zM59.607 3.184l-2.726.909.09.204.25-.09c.319-.114.569-.114.75 0 .16.067.319.317.5.772L60.04 9.16l-6.77-3.863-2.114.705.068.204c.227-.09.41-.113.523-.136.25 0 .455.023.591.068.159.023.386.136.704.318l1.909 5.067c.159.409.204.681.181.84-.068.228-.272.41-.613.5l-.273.091.091.205 2.704-.91-.068-.204-.295.091c-.295.114-.546.114-.75 0-.137-.068-.296-.34-.455-.795L53.77 6.865l7.316 4.157.204-.045-2.317-6.158c-.16-.408-.227-.704-.182-.84.091-.227.273-.386.613-.5l.271-.112-.07-.183h.003zm46.913.037a4.083 4.083 0 0 0-1.09.122 3.93 3.93 0 0 0-1.91 1.022c-.545.523-.953 1.136-1.18 1.886-.296.909-.296 1.795.022 2.636.432 1.113 1.272 1.863 2.59 2.226.704.205 1.386.227 2 .068.636-.159 1.25-.5 1.863-1.045l-.16-.159c-.658.477-1.204.75-1.658.84-.454.114-.931.091-1.454-.068a3.008 3.008 0 0 1-1.431-.84 2.468 2.468 0 0 1-.66-1.432c-.067-.545 0-1.158.205-1.84.273-.795.614-1.454 1.023-1.931.432-.477.886-.773 1.386-.91.5-.135 1-.112 1.522.024.613.182 1.113.5 1.431.954.34.454.5 1.09.5 1.908l.182.068.636-2.567-.227-.068a.82.82 0 0 1-.341.34c-.114.046-.205.069-.295.046-.091-.022-.182-.09-.318-.227-.455-.431-.978-.704-1.546-.886a4.395 4.395 0 0 0-1.09-.168zm5.635 1.758l-.091.205.273.09c.317.136.5.296.568.478.045.159-.023.454-.228.886l-2.067 4.658c-.182.34-.296.567-.386.658a.483.483 0 0 1-.341.16 2.29 2.29 0 0 1-.568-.069l-.273-.136-.091.204 5.84 2.318 1.454-1.522-.227-.091c-.455.34-.841.568-1.16.704a1.55 1.55 0 0 1-.704.09c-.204-.022-.545-.112-.954-.271l-1.295-.5c-.205-.091-.341-.16-.387-.227-.068-.091-.09-.16-.09-.228.022-.09.068-.295.227-.59l1.045-2.364 1.68.66c.296.135.524.271.638.385a.697.697 0 0 1 .204.432c0 .114-.046.364-.136.727l.204.069 1.113-2.454-.204-.091c-.205.386-.454.636-.704.704-.205.068-.523.023-.955-.159l-1.659-.659 1.25-2.817 2.09.818c.364.159.614.295.75.409a.74.74 0 0 1 .273.477c.023.182 0 .477-.09.886l.226.091.614-1.613-5.84-2.318zM46.33 8.024l-.16.068.387 6.93c.046.613.023 1.045-.068 1.295-.045.114-.227.273-.5.477l.091.204 2.34-1.113-.113-.182c-.363.136-.614.205-.773.16-.136-.023-.25-.092-.295-.205-.068-.137-.114-.364-.137-.682l-.09-1.318 2.885-1.34.955.772c.318.25.523.455.59.614.07.113.07.227 0 .363-.067.114-.226.25-.522.409l.114.205 2.885-1.387-.09-.181c-.318.136-.591.159-.818.09-.25-.045-.591-.272-1.046-.635l-5.634-4.544h-.001zm75.084.946a2.257 2.257 0 0 0-.673.076c-.613.16-1.045.477-1.34.954-.16.295-.228.568-.228.886 0 .296.069.614.228.955.136.318.454.795.886 1.453.432.637.681 1.046.772 1.205.114.25.182.5.182.704 0 .227-.045.432-.136.59-.182.296-.478.5-.864.592-.363.09-.795.023-1.227-.205a2.402 2.402 0 0 1-.931-.772 1.92 1.92 0 0 1-.364-.977c-.023-.318.069-.75.25-1.295l-.181-.091-1.364 2.34.205.09c.136-.135.204-.227.295-.227.09-.045.16-.022.25.023.09.046.295.205.567.477.296.296.478.477.591.546.16.113.364.25.569.34.659.341 1.317.433 1.954.273.659-.159 1.113-.5 1.408-1.022.16-.25.227-.568.25-.886 0-.296-.068-.614-.204-.932a12.802 12.802 0 0 0-.955-1.477c-.59-.84-.908-1.454-1-1.818-.045-.25-.022-.477.091-.681.16-.273.41-.455.773-.545a1.6 1.6 0 0 1 1.114.136c.34.182.613.41.818.727.227.318.34.66.363 1 0 .34-.09.772-.272 1.25l.204.113 1.34-2.363-.204-.091a.643.643 0 0 1-.318.227.3.3 0 0 1-.272-.045c-.091-.023-.205-.137-.341-.319a3.631 3.631 0 0 0-1.09-.908 2.883 2.883 0 0 0-1.146-.303zm-74.61.826l2.726 2.227-2.544 1.181-.182-3.408zm-5.68.909l-1.909 1.227 1.182 6.543-6.044-3.43-1.954 1.249.137.182c.272-.182.5-.295.658-.295a.845.845 0 0 1 .432.045c.16.09.341.273.546.568l3.022 4.18c.25.364.386.592.386.75 0 .25-.136.455-.432.637l-.25.159.136.181 2.386-1.545-.136-.159-.25.16c-.25.158-.5.227-.728.181-.159-.045-.386-.272-.658-.659l-3.09-4.271 6.498 3.703.159-.09-1.273-7.067 3.09 4.272c.25.363.387.614.387.75 0 .25-.137.454-.432.636l-.25.159.136.181 2.886-1.862-.114-.16-.25.137c-.25.182-.5.25-.727.182-.16-.023-.387-.25-.682-.636l-3.022-4.182c-.25-.363-.386-.613-.386-.772 0-.227.16-.454.455-.636l.227-.16-.137-.158zm85.044 4.362c-.681 0-1.204.5-1.204 1.136 0 .614.523 1.136 1.204 1.136h.114l.068-.023h.046l.068-.022h.068l.045-.023.046-.022.068-.023.045-.023.046-.023.068-.045.045-.023.046-.045.045-.023.023-.046.046-.045.045-.023.023-.045.045-.046.023-.045.023-.045.045-.046.023-.068.022-.046v-.045l.023-.068.023-.046v-.068l.023-.045v-.114c0-.636-.546-1.136-1.205-1.136zm6.612.364l-.136.159.227.182c.25.181.364.363.364.568.023.182-.136.477-.454.84l-2.023 2.34c-.636.728-1 1.273-1.136 1.614-.181.5-.181 1-.022 1.5s.59 1.022 1.294 1.544c.637.5 1.25.773 1.818.795.591.046 1.068-.045 1.5-.272.409-.25.863-.66 1.386-1.273l2.09-2.43c.295-.342.522-.524.659-.569.318-.09.59-.045.84.159l.228.182.136-.182-2.226-1.704-.137.182.227.16c.25.204.364.385.364.613.023.159-.137.431-.455.795l-2.113 2.43c-.545.66-1 1.069-1.34 1.228-.364.181-.773.227-1.25.159a2.88 2.88 0 0 1-1.34-.614c-.318-.227-.568-.5-.682-.772a1.592 1.592 0 0 1-.16-.818c.024-.273.16-.568.365-.91.204-.34.431-.613.613-.84l2.272-2.635c.295-.318.522-.523.681-.569.25-.068.5 0 .75.182l.25.182.137-.16-2.727-2.067zM31.286 17.203l-2.136 1.818.136.159.227-.204c.227-.182.455-.273.705-.25.159.022.409.204.772.568l2.227 2.34c.568.613.932 1.09 1.068 1.431.114.364.113.75-.046 1.182a2.717 2.717 0 0 1-.84 1.158 2.27 2.27 0 0 1-.932.523 2.238 2.238 0 0 1-.863.022c-.296-.068-.568-.25-.91-.477-.317-.25-.567-.5-.794-.727l-2.386-2.5c-.318-.34-.477-.567-.5-.726-.045-.25.069-.478.319-.682l.227-.205-.16-.136-2.59 2.204.137.16.227-.182c.227-.205.454-.296.659-.273.204.023.477.227.818.568l2.136 2.25c.659.704 1.158 1.136 1.522 1.295.477.25 1 .34 1.568.272.545-.09 1.158-.409 1.817-.954.614-.523.977-1.068 1.114-1.59.159-.523.136-1-.046-1.41-.204-.43-.567-.93-1.113-1.499l-2.226-2.34c-.319-.318-.478-.545-.5-.704a.736.736 0 0 1 .272-.727l.25-.205-.159-.159zm109.745 5.34c-.636 0-1.136.181-1.568.567-.227.25-.409.5-.5.796-.09.273-.113.613-.068.954.046.363.182.909.41 1.636.226.727.363 1.181.386 1.363.022.295.022.523-.046.75a1.117 1.117 0 0 1-.318.5 1.25 1.25 0 0 1-.977.363c-.41-.022-.773-.181-1.136-.522a2.559 2.559 0 0 1-.659-1c-.113-.364-.136-.727-.046-1.022.069-.318.296-.705.614-1.182l-.16-.159-1.976 1.886.159.16c.16-.114.273-.16.364-.16.09 0 .159.023.227.091s.204.273.409.614c.182.363.318.59.386.68.114.16.273.319.432.478.545.523 1.136.773 1.795.796.659.022 1.204-.182 1.659-.591.227-.228.409-.478.5-.796.113-.295.136-.613.09-.954-.045-.318-.181-.886-.454-1.681-.295-.954-.455-1.636-.41-2a.98.98 0 0 1 .297-.636c.227-.204.545-.318.909-.295.386 0 .727.136 1.022.432.273.25.454.545.567.909.114.363.114.704.023 1.045-.09.34-.295.727-.636 1.135l.16.137 2.022-1.886-.182-.159c-.16.114-.295.16-.363.16a.365.365 0 0 1-.25-.114c-.069-.069-.16-.205-.25-.432a3.418 3.418 0 0 0-.75-1.137c-.5-.454-1.069-.704-1.682-.727zm-117.174 1.09l-2.317 2.476.181.137.182-.205c.136-.136.273-.227.477-.295a.675.675 0 0 1 .364-.023c.136.046.34.205.658.455l1.795 1.477-2.499 2.68v.001l-1.795-1.454c-.295-.25-.477-.432-.545-.545a.408.408 0 0 1-.046-.364 1.22 1.22 0 0 1 .25-.477l.204-.205-.181-.136-2.295 2.477.16.136.203-.204a1.31 1.31 0 0 1 .455-.296.676.676 0 0 1 .363-.023c.137.046.364.205.66.454l4.02 3.318c.387.295.569.522.614.659.045.227-.046.477-.273.727l-.181.204.159.114 2.317-2.477-.182-.136-.181.204c-.137.136-.296.25-.477.295a.674.674 0 0 1-.364.023c-.113-.045-.364-.181-.659-.454l-1.885-1.545 2.499-2.704 1.886 1.568c.363.295.567.522.613.659.023.227-.046.477-.273.704l-.182.205.16.136 2.317-2.477-.181-.136-.182.204a1.298 1.298 0 0 1-.478.295.674.674 0 0 1-.363.023c-.136-.045-.34-.204-.659-.454l-4.022-3.317c-.295-.227-.5-.41-.545-.523a.418.418 0 0 1-.046-.363.817.817 0 0 1 .25-.477l.186-.206-.16-.136-.002.001zm124.923 5.908l-7.09 1.908c-.613.182-1.067.25-1.362.205-.137-.023-.341-.114-.591-.341l-.182.136 1.636 1.886.182-.114c-.228-.318-.34-.545-.34-.681a.46.46 0 0 1 .135-.341c.114-.091.341-.182.682-.273l1.34-.363 2.045 2.34-.59 1.068c-.205.341-.364.568-.5.682a.506.506 0 0 1-.364.068c-.159-.023-.34-.16-.568-.386l-.159.136 2.045 2.363.182-.136c-.205-.25-.296-.5-.273-.75 0-.227.136-.591.41-1.091l3.473-6.183-.114-.137.003.004zm-1.636.954l-1.682 2.999-1.795-2.045 3.477-.954zm8.52 1.25zm0 0v.022l-.022.046-.046.068-.045.09-.068.137-.091.136-.114.182-.113.182-.137.227-.159.227-.182.25-.181.295-.205.273-.227.318-.227.319-.25.34-.273.364-.295.363-.296.364-.318.387-.34.386-.342.409-.363.409-.386.432-.41.41-.409.43-.432.432-.454.432-.454.432-.477.432-.5.409-.523.432c-3.976 3.249-49.464 31.173-51.689 32.945-2.25 1.75-6.34 6.454-9.68 20.313-2.703 11.18-4.453 6.998-13.382 6.657-5.226-.204-19.722-4.02-18.609 7.18 0 0 1.795-2.499 21.586.16 7.793 1.068 14.155-1.477 15.995-7.34 1.84-5.952 4.522-16.063 8.544-21.38 1.863-2.454 38.308-24.857 48.352-30.833 3.658-2.158 15.427-9.27 7.226-17.336h-.004zM17.428 35.403l-1.318 2.022.18.113a.591.591 0 0 1 .364-.204.716.716 0 0 1 .523.114c.5.272.91.931 1.25 1.931-.954.068-1.931.09-2.977.045.046-.795.023-1.386-.09-1.772a1.459 1.459 0 0 0-.728-.909c-.363-.204-.727-.273-1.136-.159-.408.091-.727.34-.977.727-.273.41-.386.841-.363 1.296.045.59.363 1.067.954 1.385.204.137.454.228.727.318.25.069.613.137 1.068.205-.068 1.023.023 1.795.272 2.318.228.522.546.908.954 1.159.432.25.887.295 1.41.159.5-.137.93-.478 1.272-1 .25-.386.386-.773.454-1.16.068-.408.045-.93-.09-1.544.59-.113 1.044-.273 1.385-.454.318-.182.568-.409.75-.682.227-.34.318-.727.273-1.136-.068-.386-.296-.795-.705-1.204l-.272.114c.227.204.34.431.363.658.023.228-.045.455-.182.682-.136.227-.363.409-.658.568-.296.136-.704.25-1.273.341a10.182 10.182 0 0 0-.886-1.886c-.34-.613-.523-1-.545-1.204-.023-.182.045-.455.204-.75l-.204-.09v-.001zm-3.763 1.71c.192 0 .388.05.559.153.34.204.545.454.681.818l.023.068.023.068v.068l.022.069.023.09v.069l.023.068v.182l.023.068v.09l-.023.092v.295l-.023.091c-.5-.09-.886-.16-1.136-.227a2.688 2.688 0 0 1-.613-.227 1.31 1.31 0 0 1-.477-.569c-.114-.272-.069-.568.113-.84.136-.228.34-.341.591-.41.063-.01.127-.016.19-.016zm4.967 3.402h.09c.068.5.092.864.046 1.09-.023.25-.114.455-.25.66-.25.386-.59.613-1 .658a1.85 1.85 0 0 1-1.204-.204 1.798 1.798 0 0 1-.75-.84c-.136-.364-.204-.819-.204-1.341.568.045 1.023.068 1.432.068h.658l.046-.022h.318l.068-.024h.295l.068-.022h.318l.069-.023zm145.375 3.066c-.01-.003.01.02.031.044l.01-.02a.225.225 0 0 0-.041-.024zm.031.044l-.171.343-.205.364-.204.386-.205.409-.227.432-.114.205-.136.227-.136.227-.136.227-.16.227-.159.227-.159.25-.181.227-.205.25-.181.25-.227.228-.228.272-.25.25-.25.25-.273.25-.272.273-.318.25-.318.273-.342.272-.34.273-.387.25-.386.273c-8.134 5.453-39.558 24.948-46.806 29.288-4.09 2.431-7.362 7.02-8.361 9.088-1.114 2.295-2.772 7.998-3.522 17.79-.136 1.887-5.09 5-4.476 6.386.59 1.34 4.363.681 4.226 1.726-.136.91-1.25 2.295-1.25 3.181 0 1.045 2.227.091 1.681 1.227-.931 1.863.546 2.272 1.091 3.681.568 1.386-.182 2.976.318 4.158.909 2.045 4.135 2.43 9.293 2.317 5.18-.09 7.52 3.477 6.385 6.658-1.477 4.203-4.93 4.135-10.293 7.748-5.385 3.59-5.612 8.157-2.477 12.042 2.386 2.954 11.361 4.385 16.996-1.34 1.159-1.296-2.545.454-7.93-2.364 0 0-3.5-2.522-1.636-5.907 1.84-3.408 4.84-4.885 8.157-6.816 3.294-1.954 7.634-3.023 7.43-7.203-.204-4.158-4.544-4.749-6.294-4.862-1.772-.091-4.498.068-6.93-.046-3.68-.182-4.794-1.931-5.02-8.952-.069-2.25-3.227-1.045-1.478-4.022.932-1.545-1.75-.93-3.567-1.703-1.545-.705 1.795-3.954 4.112-7.044.727-.977-.409-2.226 0-6.839.387-4.021 2.25-9.27 7.635-12.951 2.636-1.795 14.132-8.952 17.472-10.861 4.681-2.704 27.334-17.36 31.22-20.29 6.78-5.123.616-10.97.194-11.455zM8.068 45.264L6.75 48.309l.228.09.09-.25a1.04 1.04 0 0 1 .341-.431.513.513 0 0 1 .341-.114c.136 0 .409.068.795.227l2.182.84-1.432 3.318-2.204-.863c-.363-.137-.613-.25-.704-.34-.09-.092-.16-.206-.16-.32a1.01 1.01 0 0 1 .069-.522l.114-.25-.205-.091-1.34 3.045.204.091.114-.25a1.31 1.31 0 0 1 .34-.432.545.545 0 0 1 .341-.136c.137 0 .41.09.796.227l4.93 1.908c.455.182.727.318.795.454.137.205.137.455 0 .75l-.113.25.227.069 1.318-3.045-.205-.09-.113.272c-.068.159-.205.295-.341.409a.545.545 0 0 1-.34.136c-.137 0-.41-.09-.773-.227l-2.34-.886 1.454-3.318 2.317.886c.454.182.728.341.796.455.136.204.136.454 0 .75l-.114.25.204.09 1.34-3.067-.204-.068-.136.25a1.417 1.417 0 0 1-.318.432.676.676 0 0 1-.34.113c-.137 0-.41-.068-.796-.227l-4.93-1.885c-.364-.16-.614-.273-.705-.341a.41.41 0 0 1-.16-.341c-.045-.182.001-.364.07-.523l.114-.25-.227-.09h-.002zm-3.658 8.77l-1.863 6.089 1.818.59.069-.204c-.341-.136-.614-.273-.773-.477a.998.998 0 0 1-.273-.613c-.022-.16.046-.41.137-.75l.295-.91 6.021 1.66c.432.113.704.25.818.363.159.182.182.432.09.75l-.09.25.227.068.978-3.158-.228-.068-.068.25c-.09.295-.25.5-.455.59-.159.069-.477.024-.954-.09l-6.02-1.659.317-1.045c.091-.295.227-.545.386-.704.16-.16.387-.25.637-.318.16-.023.409-.023.75.022l.068-.204-1.886-.432zM8.32 61.6l-.092.159c.477.295.796.568.978.795.204.25.318.477.34.727.046.273 0 .682-.113 1.273l-.137.545c-.09.5-.181.773-.227.864a.535.535 0 0 1-.227.181 2.017 2.017 0 0 1-.704-.045l-5.09-.955c-.454-.09-.75-.181-.863-.272a.678.678 0 0 1-.25-.386c-.045-.182-.023-.455.045-.864l-.204-.045-.727 3.43.204.046.069-.295c.068-.273.204-.478.408-.591.136-.091.455-.068.955.023l5.225 1c.455.068.75.181.841.272.205.182.25.431.205.75l-.068.273.227.045 1.25-5.862L8.318 61.6zm149.8 4.999l-.022.023-.023.022-.022.023-.046.023-.045.045-.046.046-.068.045-.137.114-.159.159-.204.159-.204.181-.25.205-.25.204-.296.25-.295.25-.318.25-.341.273-.34.295-.365.296-.386.295-.386.319-.41.318-.386.318-.84.636-.864.636-.84.636-.864.59-.408.296-.432.273-.41.272-.386.273c-4.476 2.795-24.562 13.474-29.015 17.155-4.476 3.68-4.295 6.816-4.295 6.816l-.726 9.112s-2.795 2.817-3.158 3.862c-.364 1.045 1.862 1.227 3.521 2.09 1.682.887-.318 1.682.364 2.477 1.318 1.477 2.34.273 1.453 2.795-.136.386 1.114 1.568.978 2.226-.228 1.045-.796 1.75.181 2.681 1.114 1.046 4.704 2.818 12.929 1.137 8.93-1.84 14.791 5.112 19.245 6.293 1.522.387 6.567 1.977 14.519-4.203 3.43-2.658-2.113-.25-10.066-3.59-8.475-3.545-11.02-3.772-16.722-2.704-4.885.909-8.498 1.704-10.407 1.136-1.636-.5-.272-2.931-1.5-3.34-2.453-.818-.772-2-2.226-2.794-1.477-.819-.613-1.137-.658-2.773-.023-1.136-1.273-.818-3.068-1.817-1.386-.796 1.909-2.25 2.386-3.409.545-1.431-.137-3.43.227-6.362.658-5.158 8.361-8.77 12.451-11.042 4.476-2.43 17.245-10.224 20.267-12.246 7.066-4.726 3.363-11.225 3.363-11.225zM8.773 68.916c-.046.318-.16.546-.341.705-.182.159-.568.34-1.136.5l-7.09 2.113v.181l6.454 3.318c.568.295.954.545 1.113.75.091.113.16.318.182.636l.228.022.25-2.43-.228-.023c-.068.363-.159.613-.25.704-.114.114-.227.159-.363.136-.137 0-.364-.09-.682-.25l-1.227-.636.295-3 1.205-.363c.408-.114.681-.159.863-.159.136.023.25.091.318.205.091.113.114.318.114.636l.227.022L9 68.94l-.227-.023zM5.5 71.78l-.25 2.659-3.18-1.659 3.43-1zm.659 5.794v.25c.5.25.886.477 1.136.704.205.182.318.387.386.569.068.204.091.522.114.954l.023 1.295c0 .227-.023.364-.068.432a.404.404 0 0 1-.205.181c-.068.023-.295.046-.659.046l-2.704.023v-1.705c-.022-.318.023-.568.091-.727a.663.663 0 0 1 .341-.318c.114-.068.364-.136.75-.182v-.204l-2.84.023v.227c.477 0 .795.114.977.296.136.159.204.454.227.886v1.704l-3.227.045-.022-2.113c-.023-.409 0-.659.068-.818.091-.204.204-.34.364-.432.159-.09.454-.204.908-.272l-.022-.228-1.795.091.068 5.975h.227v-.272c0-.318.068-.545.227-.682.114-.09.432-.159.955-.159l5.362-.068c.386 0 .659.023.773.068.136.046.25.114.318.25.09.159.136.318.136.5v.273h.227l-.068-5.976-2.068-.637zm2.136 7.18l-.228.023.046.25a.93.93 0 0 1-.09.545.413.413 0 0 1-.228.25c-.114.069-.386.137-.795.182l-5.294.568c-.41.045-.66.046-.795.023a.442.442 0 0 1-.318-.205 1.065 1.065 0 0 1-.205-.5l-.046-.272-.227.022.41 3.295.25-.046-.046-.25a1.1 1.1 0 0 1 .068-.545c.068-.113.136-.227.227-.272.137-.046.41-.114.818-.16l2.34-.25.455 3.545-2.363.272c-.387.046-.66.046-.795.024a.77.77 0 0 1-.318-.205 1.066 1.066 0 0 1-.205-.5l-.023-.273-.227.023.409 3.272.227-.023-.045-.273a.93.93 0 0 1 .09-.545.492.492 0 0 1 .228-.25c.113-.068.386-.113.795-.159l5.294-.59c.477-.046.818-.046.932.045.227.113.34.34.386.636l.045.295.227-.045-.408-3.272-.228.023.023.272c.023.182 0 .364-.068.546-.068.114-.136.204-.227.25-.137.068-.41.114-.795.159l-2.5.273-.454-3.545 2.5-.273c.477-.068.794-.045.931.023.204.136.341.34.386.659l.023.272.227-.022-.408-3.272h-.001zm-4.34 13.338l-1.727.523 1.568 5.566.204-.068-.068-.25a1.108 1.108 0 0 1 0-.545c.045-.137.091-.228.182-.296.114-.068.386-.159.773-.25l5.157-1.295c.477-.114.773-.136.932-.09.227.09.386.294.477.612l.068.25.227-.045L10.839 99l-.204.046.068.272c.045.182.045.364 0 .546-.045.136-.09.227-.182.295-.113.068-.387.16-.773.25l-2.521.636-.387-1.363c-.068-.25-.068-.455-.022-.59.022-.16.113-.274.227-.387.136-.114.34-.205.659-.273l-.069-.204-2.68.658.045.228c.455-.068.772-.046.954.045.182.114.318.318.41.636l.385 1.363-3.113.773-.477-1.636c-.09-.386-.136-.704-.113-.909.022-.204.114-.386.227-.545.16-.182.387-.364.727-.546l-.045-.204zm5.822 5.944a5.13 5.13 0 0 0-1.71.304c-1.136.41-1.954 1.09-2.43 2.022l-.046.091-.046.091-.045.09-.045.092-.023.09-.023.091-.045.091-.023.091-.023.091-.022.091-.023.09-.023.092v.09l-.023.092v.249l-.022.091.022.091v.273l.023.09v.092l.023.09.023.091.022.069.023.09.023.091.022.091.046.091.023.091c.386.954 1.022 1.636 1.976 2.09 1.091.5 2.227.546 3.454.114 1.204-.409 2.045-1.113 2.545-2.045.477-.932.522-1.909.136-2.909-.386-.977-1.114-1.68-2.181-2.113a4.224 4.224 0 0 0-1.608-.326zm.934 1.076c.343-.002.651.043.924.137.75.25 1.25.704 1.522 1.386.25.636.182 1.227-.182 1.795-.477.75-1.34 1.34-2.59 1.772-1.227.432-2.272.523-3.09.273l-.068-.023-.069-.022-.045-.023-.068-.023L7 110.36l-.068-.045-.045-.023-.068-.022-.046-.046-.045-.023-.046-.023-.068-.045-.045-.045-.046-.023-.045-.046-.046-.045-.022-.023-.046-.045-.045-.046-.046-.045-.022-.046-.046-.045-.045-.045-.023-.046-.045-.068-.023-.045-.023-.046-.045-.068-.023-.045-.023-.069-.022-.045-.023-.068c-.273-.682-.227-1.318.136-1.886.432-.727 1.34-1.318 2.658-1.772.767-.27 1.437-.407 2.008-.41zm38.005 4.568c-4.71.053-8.08 2.155-7.384 6.316l.046-.023.045-.022.046-.046.09-.045.091-.068.137-.069.136-.045.159-.068.182-.091.204-.068.227-.068.227-.046.273-.068.296-.045.295-.046.34-.046.364-.022.387-.023h.386l.432.023.454.022.478.046.25.046.272.045.25.023.273.068.273.045.272.046.296.068.295.091.296.068.318.091.295.09.341.092.319.113.34.114.341.113.341.137.363.113.364.16c7.793 3.158 28.379 12.45 33.833 16.45 3.34 2.454 12.656 6.657 10.043 11.224-2.613 4.545-15.246 6.657-12.656 16.45 2.613 9.816 16.382 5.613 18.245 3.159 1.84-2.454-6.135 1.431-8.93-5.59-2.226-5.612 1.66-9.338 7.067-12.973 2.59-1.75 6.112-3.159 5.567-7.703-.365-3.158-5.932-5.612-11.521-8.748-5.59-3.158-27.152-13.314-35.717-17.177-3.204-1.44-6.513-2.145-9.34-2.113zm-31.468 5.135l-.205.113.16.25c.136.25.181.5.113.704-.068.137-.318.319-.773.546l-5.498 2.84-.569-.954c-.159-.295-.227-.546-.227-.773a.889.889 0 0 1 .205-.636c.09-.136.273-.295.545-.477l-.09-.204-1.66.954 3.204 5.567 1.75-.795-.114-.205c-.34.159-.636.204-.909.182-.272-.023-.477-.091-.659-.25-.113-.09-.272-.318-.454-.637l-.477-.817 5.522-2.818c.409-.204.681-.295.84-.295.25.023.455.181.636.477l.137.25.204-.114-1.681-2.908zm3.544 5.657l-5.726 3.704c-.386.25-.636.363-.795.363-.272 0-.477-.136-.681-.408l-.16-.228-.204.114 1.636 2.25.182-.137-.159-.204c-.182-.25-.25-.478-.204-.682.045-.16.295-.386.681-.659l3.908-2.5-2.226 7.158 1.272 1.727.182-.114a2.947 2.947 0 0 1-.273-.432c-.045-.227-.09-.41-.09-.568 0-.137.045-.387.136-.705l4.726-3.067c.363-.227.659-.363.795-.363.273 0 .5.136.682.409l.181.227.182-.113-1.635-2.25-.183.137.16.227c.182.25.25.477.182.681-.023.16-.25.364-.682.636l-4.158 2.704 2.386-7.725-.114-.182zm4.908 6.726l-2.022.75.159.182c.545-.137 1-.182 1.364-.137.272 0 .5.09.68.182.183.113.432.34.728.682l.909.976c.136.16.227.296.227.387a.268.268 0 0 1-.023.227c-.045.068-.204.227-.477.432l-2.045 1.658-1.181-1.294c-.228-.25-.363-.455-.409-.614a.625.625 0 0 1 .023-.455c.045-.113.204-.317.477-.59l-.16-.159-2.158 1.727.159.159c.364-.25.682-.364.955-.34.204.022.454.226.772.567l1.182 1.295-2.477 1.977-1.454-1.613c-.273-.296-.432-.523-.5-.682a.901.901 0 0 1-.022-.545c.068-.182.227-.432.5-.75l-.137-.182-1.34 1.181 4.135 4.545.159-.137-.182-.227c-.227-.227-.318-.454-.295-.659.045-.136.25-.386.636-.681l4.067-3.295c.318-.227.523-.386.659-.431a.563.563 0 0 1 .386 0c.182.068.34.181.454.318l.205.204.16-.136-4.114-4.522zm4.43 4.976l-.158.136.204.182c.25.204.364.409.34.636 0 .159-.158.409-.5.773l-3.657 3.726c-.295.318-.545.477-.682.522-.25.046-.522-.045-.772-.272l-.205-.182-.159.16 1.704 1.499 6.521-2.568-2.181 6.317 1.727 1.5.136-.16c-.227-.204-.386-.386-.454-.545-.046-.16-.068-.296-.023-.41.046-.158.204-.363.431-.613l3.659-3.726c.318-.318.545-.5.704-.522.227-.069.5.022.75.25l.204.181.16-.136-2.114-1.84-.136.159.205.181c.227.205.34.409.34.636 0 .137-.182.386-.522.75l-3.727 3.795 2.386-6.793-.137-.137-7.043 2.772 3.75-3.804c.296-.318.523-.5.682-.523.25-.068.5.023.773.25l.204.182.16-.16-2.568-2.226-.001.01zm9.634 7.93l-.136.181.25.16c.25.18.387.363.432.59 0 .16-.136.432-.432.795l-3.68 4.794-.955-.636a1.728 1.728 0 0 1-.568-.59c-.09-.182-.114-.41-.091-.66.023-.158.114-.363.273-.658l-.182-.136-1.045 1.544 5.43 3.704 1.204-1.432-.181-.113c-.25.272-.477.432-.728.522-.25.091-.5.091-.704.046-.159-.046-.386-.182-.704-.387l-.796-.567 3.681-4.772c.273-.363.477-.545.613-.613.25-.068.5-.023.795.182l.228.159.136-.182-2.84-1.931zm3.84 2.703l-.113.182c.363.25.635.5.772.795.16.273.25.727.319 1.341l.272 2.749c-.681-.204-1.25-.227-1.727-.091-.477.136-.84.41-1.09.818-.25.386-.341.773-.25 1.204.068.41.25.773.545 1.068.296.296.818.659 1.568 1.068l2.567 1.454.114-.204-.25-.136c-.296-.137-.432-.341-.477-.546-.023-.159.068-.454.34-.863l2.705-4.317c.25-.386.43-.59.567-.659.25-.113.523-.09.796.068l.273.16.113-.182-3.022-1.681-.114.181.273.16c.273.135.409.318.454.522.046.159-.09.455-.34.863l-1.227 1.954c-.046-.022-.091-.068-.137-.09a.366.366 0 0 1-.159-.091c-.09-.046-.25-.137-.409-.228l-.454-4.453-1.909-1.045zm7.385 4.09l-.091.205c.295.136.5.318.59.545.114.205.16.591.16 1.16l-.205 6.997.182.068 5.43-4.68c.477-.432.863-.682 1.114-.773.136-.045.363-.022.704.069l.09-.205-2.362-1-.091.182c.363.182.568.34.636.454.068.137.068.25.023.364-.069.136-.228.318-.477.545l-1.023.864-2.93-1.227.022-1.182c.023-.408.046-.681.114-.817.068-.114.159-.205.318-.228.136-.045.363 0 .659.114l.09-.182-2.953-1.272zm-6.153 1.52c.408.017.864.162 1.358.434.046.023.068.046.137.091h.023l.022.023.023.023h.023l.022.022h.023v.023h.023l-1.75 2.75a4.86 4.86 0 0 1-.863-.341c-.455-.25-.727-.568-.84-.977-.114-.432-.023-.841.227-1.25.272-.432.659-.681 1.181-.772a1.77 1.77 0 0 1 .392-.026zm16.286 2.48l-.068.204.295.09c.273.091.478.25.569.455.045.136 0 .431-.16.909l-.794 2.135c-.228-.136-.432-.25-.637-.363-.227-.068-.409-.16-.613-.227-.75-.25-1.409-.25-1.954-.023a2.14 2.14 0 0 0-1.16 1.272 1.897 1.897 0 0 0-.022 1.273c.16.41.432.75.773 1.022.34.25.864.5 1.568.728l2.84.931.068-.204-.296-.091c-.295-.091-.477-.25-.568-.454-.068-.137-.022-.455.16-.887l1.726-4.771c.16-.409.296-.66.41-.75.204-.136.476-.16.794-.068l.296.09.09-.181-3.316-1.09zm-8.407.022l2.59 1.09-2.68 2.318.09-3.408zm12.951 1.364l-1.18 1.726.272.069a4.533 4.533 0 0 1 1-.864c.227-.136.454-.205.68-.227.205 0 .546.045 1 .136l1.341.319c.227.045.363.09.432.159.068.068.114.136.114.204.022.09-.023.272-.091.636l-.636 2.454-1.773-.386c-.318-.069-.568-.16-.704-.273a.867.867 0 0 1-.273-.387c-.022-.113-.022-.363.023-.75l-.227-.045-.659 2.613.204.045c.137-.409.341-.681.568-.818.205-.09.523-.068.978.023l1.75.41-.75 2.976-2.205-.5c-.386-.114-.659-.205-.795-.273-.182-.136-.318-.295-.364-.454-.068-.159-.09-.454-.068-.886l-.25-.045-.318 1.68 6.158 1.387.045-.205-.272-.068c-.318-.068-.546-.204-.636-.363-.069-.137-.069-.455.068-.932l1.25-4.908c.09-.34.18-.59.25-.682.067-.136.18-.181.317-.204a.977.977 0 0 1 .568-.022l.296.068.045-.205-6.157-1.408zm10.35 2.038c-1.058.033-1.915.318-2.579.847-.772.636-1.25 1.477-1.386 2.544-.113.819 0 1.523.296 2.182.318.659.772 1.159 1.363 1.5.59.318 1.5.568 2.727.727l3.317.386.022-.227-.295-.023c-.295-.046-.522-.136-.659-.34-.09-.114-.114-.432-.045-.91l.659-4.976c.068-.431.158-.704.25-.818.158-.181.43-.272.772-.227l.296.046.022-.228-3.635-.432a7.782 7.782 0 0 0-1.125-.051zm-16.488.188c.146.002.29.025.435.068.114.045.25.091.387.16l.023.022h.045l.023.023.022.022h.023l.046.023.022.023h.023l.045.023.023.022h.046l.022.023.046.023.022.022h.046l.023.023-1.114 3.068c-.34-.046-.59-.091-.772-.16-.318-.09-.591-.25-.773-.476-.205-.205-.318-.478-.364-.796-.045-.318 0-.636.114-.954.182-.454.454-.773.84-.977a1.6 1.6 0 0 1 .746-.182zm17.253.268c.111.004.223.013.337.027h.068l.068.023h.069l.09.023h.069l.068.022.068.023h.09l.07.023.09.023.09.022.069.023.09.023.092.023.09.045.092.023-.864 6.543c-.477.046-.91.069-1.25.023-.977-.114-1.727-.523-2.249-1.204-.545-.682-.727-1.545-.59-2.613.136-1.068.568-1.863 1.249-2.408a3.131 3.131 0 0 1 2.094-.664z" fill="#FFF"/></svg>