<svg id="Layer_1" xmlns="http://www.w3.org/2000/svg" viewBox="0 0 250 250"><style>.st0{fill:#d6d6d6}.st1{fill:#48c2ed}.st2{fill:none}.st3{fill:#bf1366}.st4{fill:#461070}</style><path class="st0" d="M39.2 64.8L6.9 97.1c-.1.3-.2.5-.3.8l33.7-33.7c-.3.2-.7.4-1.1.6zM53 58.6L5.2 106.4v.6L54 58.2c-.4.1-.7.3-1 .4zm11.9-4.3L5.4 113.8v.5L65.8 54l-.9.3zm11-3.4L6.4 120.4c0 .2.1.3.1.5l70.2-70.2c-.3.1-.5.1-.8.2zm10.4-2.8L8.2 126.2c.1.1.1.3.2.4l78.7-78.7c-.3.1-.5.1-.8.2zm10.1-2.5l-85.8 85.8c.1.1.1.2.2.4l86.3-86.3c-.2 0-.5 0-.7.1zm9.9-2.3l-92.7 92.8c.1.1.2.2.2.3L107 43.1c-.2.1-.4.2-.7.2zm10-2.3l-99.2 99.2.3.3L117 40.9c-.2 0-.4.1-.7.1zm9.2-1.5L21 143.9l.3.3L126.1 39.4c-.2 0-.4 0-.6.1zm8.3-.8L25.3 147.3c.1.1.2.2.3.2L134.4 38.7h-.6zm7.7 0L29.9 150.3c.1.1.2.1.4.2L142 38.7h-.5zm7.1.5L34.7 153.1c.1.1.2.1.4.2l114-114c-.2-.1-.3-.1-.5-.1zm6.6.9L39.7 155.6c.1.1.3.1.4.2L155.7 40.2c-.2 0-.3 0-.5-.1zm6.2 1.5L45 158c.1.1.3.1.4.2L161.9 41.7c-.2 0-.3-.1-.5-.1zm5.9 1.8L50.2 160.5c.1.1.3.1.4.2L167.7 43.6c-.2-.1-.3-.1-.4-.2zm5.4 2.2L55.2 163.1c.1.1.2.1.4.2L173.1 45.8c-.2-.1-.3-.1-.4-.2zm5 2.6L60.2 165.7c.1.1.2.1.4.2L178.1 48.4c-.1-.1-.3-.2-.4-.2zm4.7 2.9L65.1 168.4c.1.1.2.1.4.2L182.8 51.3c-.1-.1-.3-.2-.4-.2zm4.4 3.2L70 171.1c.1.1.2.1.4.2L187.1 54.5c-.1-.1-.2-.1-.3-.2zm4.1 3.5l-116 116c.1.1.2.1.4.2L191.2 58.1l-.3-.3zm3.7 3.9L79.8 176.5c.1.1.2.1.4.2L194.9 62l-.3-.3zM198 66L84.9 179.2c.1.1.2.1.4.2l113-113c-.1-.2-.2-.3-.3-.4zm3.1 4.5L89.9 181.8c.1.1.3.1.4.2l111-111.1c-.1-.1-.1-.2-.2-.4zm2.7 4.9L94.9 184.3c.1.1.3.1.4.2L204 75.8c-.1-.1-.1-.2-.2-.4zm2.3 5.3l-106 106.1c.1.1.3.1.4.2L206.3 81.1c-.1-.1-.1-.3-.2-.4zm2 5.7L105.3 189.1c.1.1.3.1.4.2L208.2 86.8c-.1-.1-.1-.3-.1-.4zm1.5 6l-98.8 98.8c.1.1.3.1.4.2l98.5-98.5c0-.2-.1-.3-.1-.5zm1.1 6.6l-94.2 94.2c.1 0 .3.1.4.1l93.9-93.9c-.1-.1-.1-.3-.1-.4zm.6 7.1l-88.7 88.7c.2 0 .3.1.5.1l88.3-88.3c-.1-.1-.1-.3-.1-.5zM129 195.9c.2 0 .3 0 .5.1l81.7-81.7v-.6L129 195.9zm7.6.6l74-74c0-.2.1-.4.1-.6L136 196.5h.6zm7.8-.2l64.7-64.7c.1-.2.1-.5.2-.7l-65.5 65.5c.2-.1.4-.1.6-.1zm9.1-1.5l52.9-52.9c.1-.3.2-.6.3-.8L152.8 195c.2 0 .4-.1.7-.2zM165 191l36.1-36.1c.2-.4.4-.7.6-1.1L164 191.4c.3-.1.6-.3 1-.4z"/><path class="st1" d="M173.8 37.4c-39.2 0-71 31.8-71 71s31.8 71 71 71 71-31.8 71-71-31.8-71-71-71zm41.5 61.1L192 115.4l8.8 27.4c.8 2.3-1.8 4.1-3.8 2.7l-23.3-16.7-23.4 16.9c-2 1.4-4.4-.5-3.8-2.7l8.8-27.4-23.1-17c-1.8-1.4-.9-4.4 1.4-4.4l28.7-.2 9-27.4c.8-2.3 4-2.3 4.6 0l9 27.4 28.7.2c2.6-.1 3.5 2.9 1.7 4.3z"/><path class="st2" d="M79.9 190.9c0 9.9 8.1 17.9 17.9 17.9 7 0 13.4-4.1 16.3-10.5l4.6-9.9c4.3-9.4 13.4-15.7 23.6-16.3v-.3c-16.7-8.4-29.8-23.1-35.7-41.2-7.1 6.4-16.4 10.3-26.4 10.8v49.4h-.3v.1zm72.7-10.1c2.4 0 4.6-1.4 5.8-3.2-4.3-.9-8.5-2.3-12.5-4v.5c0 3.7 3 6.7 6.7 6.7zm-74.5-53.7c-10.2 0-20.4-3.2-28.9-9.6l-8.1-6.1c5.2 15.3 19.8 26.4 36.9 26.4 10.6 0 20.2-4.3 27.2-11.1-.6-2.3-1.1-4.7-1.5-7.1-7.8 4.9-16.6 7.5-25.6 7.5z"/><path class="st3" d="M152.6 180.8c-3.6 0-6.7-3-6.7-6.7v-.5c-1.2-.5-2.4-1.1-3.6-1.7v.3c-10.2.6-19.3 6.8-23.6 16.3l-4.6 9.9c-2.9 6.4-9.3 10.5-16.3 10.5-9.9 0-17.9-8.1-17.9-17.9v-49.5c10.2-.5 19.5-4.4 26.4-10.8-.5-1.4-.8-2.6-1.1-4-7 6.8-16.7 11-27.3 11-17 0-31.6-11.1-36.9-26.4l8.1 6.1c8.5 6.4 18.7 9.6 28.9 9.6 9 0 18-2 25.8-7-.2-1.4-.5-2.7-.6-4.3-15.5 10.8-36.6 10.1-51.8-1.5l-11.9-9c-.3-2.1-.6-4.4-.6-6.7V53.7c0-4.7 3.8-8.5 8.5-8.5h6.8c1.1 0 1.8-.9 1.8-2s-.9-1.8-1.8-1.8h-6.8c-6.7 0-12.3 5.5-12.3 12.3v45.1c0 2.6.3 5 .6 7.4 0 .3 0 .6.2.9 3.8 19 20.2 33.4 40 34.3v49.4c0 12 9.7 21.7 21.7 21.7 8.5 0 16.3-5 19.8-12.8l4.6-9.9c3.6-8.1 11.4-13.4 20.1-14 .9 4.9 5.2 8.5 10.3 8.5 4.3 0 8.1-2.3 9.8-5.9-1.4-.2-2.5-.8-3.9-1.1-.9 2.2-3.3 3.5-5.7 3.5zM120.8 53.7c0-6.7-5.5-12.3-12.3-12.3h-6.8c-1.1 0-1.8.9-1.8 1.8s.9 2 1.8 2h6.8c4.7 0 8.5 3.8 8.5 8.5v12.2c1.2-1.7 2.4-3.2 3.8-4.6v-7.6z"/><path class="st4" d="M152.6 163.5c-5 0-9.3 3.6-10.3 8.4 1.2.6 2.4 1.2 3.6 1.7.3-3.5 3.2-6.2 6.7-6.2 3.6 0 6.7 3 6.7 6.7 0 1.2-.5 2.4-1.1 3.5 1.2.3 2.6.6 4 .8.6-1.4.9-2.7.9-4.3 0-5.9-4.8-10.6-10.5-10.6zm-45.6-46l8.1-6.1c-2 5.9-5.5 11.1-9.9 15.3.3 1.4.7 2.6 1.1 4 6.8-6.1 12-14.2 13.8-23.3.2-.3.2-.6.2-.9.5-2.4.6-5 .6-7.4V61.3c-1.4 1.5-2.6 3-3.8 4.6v33c0 2.3-.2 4.4-.6 6.7l-11.9 9c-.5.3-.9.6-1.4 1.1.2 1.4.3 2.9.6 4.3 1-1.2 2.1-1.8 3.2-2.5z"/></svg>