<?xml version="1.0" encoding="UTF-8" standalone="no"?>
<svg width="125px" height="112px" viewBox="0 0 125 112" version="1.1" xmlns="http://www.w3.org/2000/svg" xmlns:xlink="http://www.w3.org/1999/xlink">
    <!-- Generator: Sketch 50.2 (55047) - http://www.bohemiancoding.com/sketch -->
    <title>Group 2</title>
    <desc>Created with Sketch.</desc>
    <defs>
        <circle id="path-1" cx="47.5" cy="47.5" r="47.5"></circle>
    </defs>
    <g id="Page-1" stroke="none" stroke-width="1" fill="none" fill-rule="evenodd">
        <g id="Group-2" transform="translate(0.000000, -1.000000)">
            <g id="Group-Copy-3" transform="translate(69.546550, 65.453450) rotate(-58.000000) translate(-69.546550, -65.453450) translate(22.046550, 17.953450)">
                <mask id="mask-2" fill="white">
                    <use xlink:href="#path-1"></use>
                </mask>
                <g id="Mask"></g>
                <g id="Group" mask="url(#mask-2)" stroke="#EEEEEE" stroke-linecap="square">
                    <g transform="translate(-32.000000, -8.000000)">
                        <path d="M0.747747748,0.5 L165.252252,0.5" id="Line"></path>
                        <path d="M0.747747748,10.5 L165.252252,10.5" id="Line-Copy"></path>
                        <path d="M0.747747748,20.5 L165.252252,20.5" id="Line-Copy-2"></path>
                        <path d="M0.747747748,30.5 L165.252252,30.5" id="Line-Copy-3"></path>
                        <path d="M0.747747748,40.5 L165.252252,40.5" id="Line-Copy-4"></path>
                        <path d="M0.747747748,50.5 L165.252252,50.5" id="Line-Copy-5"></path>
                        <path d="M0.747747748,60.5 L165.252252,60.5" id="Line-Copy-6"></path>
                        <path d="M0.747747748,70.5 L165.252252,70.5" id="Line-Copy-7"></path>
                        <path d="M0.747747748,80.5 L165.252252,80.5" id="Line-Copy-8"></path>
                        <path d="M0.747747748,90.5 L165.252252,90.5" id="Line-Copy-9"></path>
                        <path d="M0.747747748,100.5 L165.252252,100.5" id="Line-Copy-10"></path>
                        <path d="M0.747747748,5.5 L165.252252,5.5" id="Line-Copy-21"></path>
                        <path d="M0.747747748,15.5 L165.252252,15.5" id="Line-Copy-20"></path>
                        <path d="M0.747747748,25.5 L165.252252,25.5" id="Line-Copy-19"></path>
                        <path d="M0.747747748,35.5 L165.252252,35.5" id="Line-Copy-18"></path>
                        <path d="M0.747747748,45.5 L165.252252,45.5" id="Line-Copy-17"></path>
                        <path d="M0.747747748,55.5 L165.252252,55.5" id="Line-Copy-16"></path>
                        <path d="M0.747747748,65.5 L165.252252,65.5" id="Line-Copy-15"></path>
                        <path d="M0.747747748,75.5 L165.252252,75.5" id="Line-Copy-14"></path>
                        <path d="M0.747747748,85.5 L165.252252,85.5" id="Line-Copy-13"></path>
                        <path d="M0.747747748,95.5 L165.252252,95.5" id="Line-Copy-12"></path>
                        <path d="M0.747747748,105.5 L165.252252,105.5" id="Line-Copy-11"></path>
                    </g>
                </g>
            </g>
            <circle id="Oval" fill="#FFFFFF" cx="32" cy="80" r="31"></circle>
            <path d="M31.5,48.5 C40.2187936,48.5 47.6484068,51.5702818 53.7890625,57.7109375 C59.9297182,63.8515932 63,71.2812064 63,80 C63,88.7187936 59.9297182,96.1484068 53.7890625,102.289062 C47.6484068,108.429718 40.2187936,111.5 31.5,111.5 C22.7812064,111.5 15.3515932,108.429718 9.2109375,102.289062 C3.0702818,96.1484068 0,88.7187936 0,80 C0,71.2812064 3.0702818,63.8515932 9.2109375,57.7109375 C15.3515932,51.5702818 22.7812064,48.5 31.5,48.5 Z M52.171875,100.671875 C55.0781395,97.7656105 57.1874934,94.6718914 58.5,91.390625 C60.0000075,87.8281072 60.75,84.0312702 60.75,80 C60.75,75.9687298 60.0000075,72.1718928 58.5,68.609375 C57.1874934,65.3281086 55.0781395,62.2343895 52.171875,59.328125 C49.2656105,56.4218605 46.1718914,54.3125066 42.890625,53 C39.3281072,51.4999925 35.5312702,50.75 31.5,50.75 C27.4687298,50.75 23.6718928,51.4999925 20.109375,53 C16.8281086,54.3125066 13.7343895,56.4218605 10.828125,59.328125 C7.92186047,62.2343895 5.81250656,65.3281086 4.5,68.609375 C2.9999925,72.1718928 2.25,75.9687298 2.25,80 C2.25,84.0312702 2.9999925,87.8281072 4.5,91.390625 C5.81250656,94.6718914 7.92186047,97.7656105 10.828125,100.671875 C13.7343895,103.57814 16.8281086,105.687493 20.109375,107 C23.6718928,108.500007 27.4687298,109.25 31.5,109.25 C35.5312702,109.25 39.3281072,108.500007 42.890625,107 C46.1718914,105.687493 49.2656105,103.57814 52.171875,100.671875 Z M30.375,55.25 C30.375,54.4999962 30.7499963,54.125 31.5,54.125 C32.2500037,54.125 32.625,54.4999962 32.625,55.25 C32.625,56.0000037 32.2500037,56.375 31.5,56.375 C30.7499963,56.375 30.375,56.0000037 30.375,55.25 Z M30.375,104.75 C30.375,103.999996 30.7499963,103.625 31.5,103.625 C32.2500037,103.625 32.625,103.999996 32.625,104.75 C32.625,105.500004 32.2500037,105.875 31.5,105.875 C30.7499963,105.875 30.375,105.500004 30.375,104.75 Z M55.125,80 C55.125,79.2499962 55.4999962,78.875 56.25,78.875 C57.0000038,78.875 57.375,79.2499962 57.375,80 C57.375,80.7500038 57.0000038,81.125 56.25,81.125 C55.4999962,81.125 55.125,80.7500038 55.125,80 Z M5.625,80 C5.625,79.2499962 5.99999625,78.875 6.75,78.875 C7.50000375,78.875 7.875,79.2499962 7.875,80 C7.875,80.7500038 7.50000375,81.125 6.75,81.125 C5.99999625,81.125 5.625,80.7500038 5.625,80 Z M18,58.625 C18,57.8749962 18.3749962,57.5 19.125,57.5 C19.8750038,57.5 20.25,57.8749962 20.25,58.625 C20.25,59.3750037 19.8750038,59.75 19.125,59.75 C18.3749962,59.75 18,59.3750037 18,58.625 Z M42.75,101.375 C42.75,100.624996 43.1249963,100.25 43.875,100.25 C44.6250037,100.25 45,100.624996 45,101.375 C45,102.125004 44.6250037,102.5 43.875,102.5 C43.1249963,102.5 42.75,102.125004 42.75,101.375 Z M51.75,67.625 C51.75,66.8749962 52.1249962,66.5 52.875,66.5 C53.6250038,66.5 54,66.8749962 54,67.625 C54,68.3750038 53.6250038,68.75 52.875,68.75 C52.1249962,68.75 51.75,68.3750038 51.75,67.625 Z M9,92.375 C9,91.6249962 9.37499625,91.25 10.125,91.25 C10.8750037,91.25 11.25,91.6249962 11.25,92.375 C11.25,93.1250038 10.8750037,93.5 10.125,93.5 C9.37499625,93.5 9,93.1250038 9,92.375 Z M9,67.625 C9,66.8749962 9.37499625,66.5 10.125,66.5 C10.8750037,66.5 11.25,66.8749962 11.25,67.625 C11.25,68.3750038 10.8750037,68.75 10.125,68.75 C9.37499625,68.75 9,68.3750038 9,67.625 Z M51.75,92.375 C51.75,91.6249962 52.1249962,91.25 52.875,91.25 C53.6250038,91.25 54,91.6249962 54,92.375 C54,93.1250038 53.6250038,93.5 52.875,93.5 C52.1249962,93.5 51.75,93.1250038 51.75,92.375 Z M42.75,58.625 C42.75,57.8749962 43.1249963,57.5 43.875,57.5 C44.6250037,57.5 45,57.8749962 45,58.625 C45,59.3750037 44.6250037,59.75 43.875,59.75 C43.1249963,59.75 42.75,59.3750037 42.75,58.625 Z M18,101.375 C18,100.624996 18.3749962,100.25 19.125,100.25 C19.8750038,100.25 20.25,100.624996 20.25,101.375 C20.25,102.125004 19.8750038,102.5 19.125,102.5 C18.3749962,102.5 18,102.125004 18,101.375 Z M33.46875,78.875 C34.2187538,80.281257 33.9375066,81.3124967 32.625,81.96875 L32.625,99.125 C32.625,99.8750038 32.2500037,100.25 31.5,100.25 C30.7499963,100.25 30.375,99.8750038 30.375,99.125 L30.375,81.96875 L29.53125,81.125 C29.0624977,80.3749962 29.0624977,79.6250037 29.53125,78.875 L24.328125,70.015625 C23.9531231,69.2656213 24.0937467,68.7500014 24.75,68.46875 C25.4062533,68.1874986 25.8749986,68.3281222 26.15625,68.890625 L31.5,77.75 C32.3437542,77.75 32.9999977,78.1249963 33.46875,78.875 Z" id="" fill="#4A90E2"></path>
            <path d="M95.5714286,61.7142857 C95.5714286,61.3333314 95.3809543,61.1428571 95,61.1428571 C93.5952311,61.1428571 92.3869098,60.6369098 91.375,59.625 C90.3630902,58.6130902 89.8571429,57.4047689 89.8571429,56 C89.8571429,55.6190457 89.6666686,55.4285714 89.2857143,55.4285714 C88.90476,55.4285714 88.7142857,55.6190457 88.7142857,56 C88.7142857,57.7381039 89.3273748,59.220232 90.5535714,60.4464286 C91.779768,61.6726252 93.2618961,62.2857143 95,62.2857143 C95.3809543,62.2857143 95.5714286,62.09524 95.5714286,61.7142857 Z M71.7857143,51.4285714 L118.214286,51.4285714 C111.880921,44.2856786 108.714286,34.3810157 108.714286,21.7142857 C108.714286,20.4999939 108.428574,19.2500064 107.857143,17.9642857 C107.285711,16.678565 106.464291,15.4523868 105.392857,14.2857143 C104.321423,13.1190418 102.875009,12.160718 101.053571,11.4107143 C99.2321338,10.6607105 97.2142968,10.2857143 95,10.2857143 C92.7857032,10.2857143 90.7678662,10.6607105 88.9464286,11.4107143 C87.1249909,12.160718 85.6785768,13.1190418 84.6071429,14.2857143 C83.5357089,15.4523868 82.7142886,16.678565 82.1428571,17.9642857 C81.5714257,19.2500064 81.2857143,20.4999939 81.2857143,21.7142857 C81.2857143,34.3810157 78.1190793,44.2856786 71.7857143,51.4285714 Z M124.714286,51.4285714 C124.714286,52.6666729 124.261909,53.7380907 123.357143,54.6428571 C122.452376,55.5476236 121.380959,56 120.142857,56 L104.142857,56 C104.142857,58.5238221 103.250009,60.6785625 101.464286,62.4642857 C99.6785625,64.2500089 97.5238221,65.1428571 95,65.1428571 C92.4761779,65.1428571 90.3214375,64.2500089 88.5357143,62.4642857 C86.7499911,60.6785625 85.8571429,58.5238221 85.8571429,56 L69.8571429,56 C68.6190414,56 67.5476236,55.5476236 66.6428571,54.6428571 C65.7380907,53.7380907 65.2857143,52.6666729 65.2857143,51.4285714 C66.4761964,50.4285664 67.5595189,49.3809579 68.5357143,48.2857143 C69.5119096,47.1904707 70.5238043,45.7678659 71.5714286,44.0178571 C72.6190529,42.2678484 73.5059488,40.3809625 74.2321429,38.3571429 C74.958337,36.3333232 75.5535691,33.8809668 76.0178571,31 C76.4821452,28.1190332 76.7142857,25.0238261 76.7142857,21.7142857 C76.7142857,18.09522 78.1071289,14.7321584 80.8928571,11.625 C83.6785854,8.51784161 87.3333107,6.63095571 91.8571429,5.96428571 C91.6666657,5.5119025 91.5714286,5.04762143 91.5714286,4.57142857 C91.5714286,3.61904286 91.9047586,2.80952714 92.5714286,2.14285714 C93.2380986,1.47618714 94.0476143,1.14285714 95,1.14285714 C95.9523857,1.14285714 96.7619014,1.47618714 97.4285714,2.14285714 C98.0952414,2.80952714 98.4285714,3.61904286 98.4285714,4.57142857 C98.4285714,5.04762143 98.3333343,5.5119025 98.1428571,5.96428571 C102.666689,6.63095571 106.321415,8.51784161 109.107143,11.625 C111.892871,14.7321584 113.285714,18.09522 113.285714,21.7142857 C113.285714,25.0238261 113.517855,28.1190332 113.982143,31 C114.446431,33.8809668 115.041663,36.3333232 115.767857,38.3571429 C116.494051,40.3809625 117.380947,42.2678484 118.428571,44.0178571 C119.476196,45.7678659 120.48809,47.1904707 121.464286,48.2857143 C122.440481,49.3809579 123.523804,50.4285664 124.714286,51.4285714 Z" id="" fill="#209FA6"></path>
        </g>
    </g>
</svg>