<?xml version="1.0" encoding="UTF-8" standalone="no"?>
<svg width="141px" height="108px" viewBox="0 0 141 108" version="1.1" xmlns="http://www.w3.org/2000/svg" xmlns:xlink="http://www.w3.org/1999/xlink">
    <!-- Generator: Sketch 50.2 (55047) - http://www.bohemiancoding.com/sketch -->
    <title>Group 11</title>
    <desc>Created with Sketch.</desc>
    <defs>
        <circle id="path-1" cx="47.5" cy="47.5" r="47.5"></circle>
    </defs>
    <g id="Page-1" stroke="none" stroke-width="1" fill="none" fill-rule="evenodd">
        <g id="Group-11" transform="translate(0.000000, -5.000000)">
            <g id="Group-Copy-5" transform="translate(69.453450, 65.500000) rotate(-58.000000) translate(-69.453450, -65.500000) translate(21.953450, 18.000000)">
                <mask id="mask-2" fill="white">
                    <use xlink:href="#path-1"></use>
                </mask>
                <g id="Mask"></g>
                <g id="Group" mask="url(#mask-2)" stroke="#EEEEEE" stroke-linecap="square">
                    <g transform="translate(-32.000000, -8.000000)">
                        <path d="M0.747747748,0.5 L165.252252,0.5" id="Line"></path>
                        <path d="M0.747747748,10.5 L165.252252,10.5" id="Line-Copy"></path>
                        <path d="M0.747747748,20.5 L165.252252,20.5" id="Line-Copy-2"></path>
                        <path d="M0.747747748,30.5 L165.252252,30.5" id="Line-Copy-3"></path>
                        <path d="M0.747747748,40.5 L165.252252,40.5" id="Line-Copy-4"></path>
                        <path d="M0.747747748,50.5 L165.252252,50.5" id="Line-Copy-5"></path>
                        <path d="M0.747747748,60.5 L165.252252,60.5" id="Line-Copy-6"></path>
                        <path d="M0.747747748,70.5 L165.252252,70.5" id="Line-Copy-7"></path>
                        <path d="M0.747747748,80.5 L165.252252,80.5" id="Line-Copy-8"></path>
                        <path d="M0.747747748,90.5 L165.252252,90.5" id="Line-Copy-9"></path>
                        <path d="M0.747747748,100.5 L165.252252,100.5" id="Line-Copy-10"></path>
                        <path d="M0.747747748,5.5 L165.252252,5.5" id="Line-Copy-21"></path>
                        <path d="M0.747747748,15.5 L165.252252,15.5" id="Line-Copy-20"></path>
                        <path d="M0.747747748,25.5 L165.252252,25.5" id="Line-Copy-19"></path>
                        <path d="M0.747747748,35.5 L165.252252,35.5" id="Line-Copy-18"></path>
                        <path d="M0.747747748,45.5 L165.252252,45.5" id="Line-Copy-17"></path>
                        <path d="M0.747747748,55.5 L165.252252,55.5" id="Line-Copy-16"></path>
                        <path d="M0.747747748,65.5 L165.252252,65.5" id="Line-Copy-15"></path>
                        <path d="M0.747747748,75.5 L165.252252,75.5" id="Line-Copy-14"></path>
                        <path d="M0.747747748,85.5 L165.252252,85.5" id="Line-Copy-13"></path>
                        <path d="M0.747747748,95.5 L165.252252,95.5" id="Line-Copy-12"></path>
                        <path d="M0.747747748,105.5 L165.252252,105.5" id="Line-Copy-11"></path>
                    </g>
                </g>
            </g>
            <path d="M109.5,57.0465504 C118.218794,57.0465504 125.648407,60.1168322 131.789062,66.2574879 C137.929718,72.3981436 141,79.8277568 141,88.5465504 C141,96.4215898 138.375026,103.35902 133.125,109.35905 C132.937499,109.546551 132.679689,109.827799 132.351562,110.2028 C132.023436,110.577802 131.765626,110.859049 131.578125,111.04655 L130.171875,109.6403 L130.03125,109.35905 C127.218736,106.734037 124.171891,104.718432 120.890625,103.312175 C117.328107,101.812168 113.53127,101.062175 109.5,101.062175 C105.46873,101.062175 101.671893,101.812168 98.109375,103.312175 C94.8281086,104.718432 91.7812641,106.734037 88.96875,109.35905 L88.828125,109.6403 L87.421875,111.04655 C87.2343741,110.859049 86.9765641,110.577802 86.6484375,110.2028 C86.3203109,109.827799 86.0625009,109.546551 85.875,109.35905 C80.6249737,103.35902 78,96.4215898 78,88.5465504 C78,79.8277568 81.0702818,72.3981436 87.2109375,66.2574879 C93.3515932,60.1168322 100.781206,57.0465504 109.5,57.0465504 Z M136.5,99.9371754 C137.812507,96.8434099 138.562499,93.4215691 138.75,89.6715504 L134.25,89.6715504 L134.25,87.4215504 L138.75,87.4215504 C138.562499,83.6715316 137.812507,80.2496909 136.5,77.1559254 C135.374994,74.3434113 133.546888,71.5309394 131.015625,68.7184254 L127.21875,72.5153004 L125.671875,70.9684254 L125.53125,70.9684254 L129.328125,67.1715504 C126.609361,64.6402877 123.79689,62.7653065 120.890625,61.5465504 C117.79686,60.2340438 114.328144,59.4840513 110.484375,59.2965504 L110.484375,64.6403004 L108.234375,64.6403004 L108.234375,59.2965504 C104.578107,59.4840513 101.20314,60.2340438 98.109375,61.5465504 C94.7343581,63.0465579 91.8750117,64.9215391 89.53125,67.1715504 L93.328125,70.9684254 L91.78125,72.5153004 L87.984375,68.7184254 C85.4531123,71.5309394 83.6250056,74.3434113 82.5,77.1559254 C81.1874934,80.2496909 80.4375009,83.7184062 80.25,87.5621754 L84.75,87.5621754 L84.75,89.8121754 L80.25,89.8121754 C80.4375009,93.4684437 81.1874934,96.8434099 82.5,99.9371754 C83.906257,103.030941 85.5468656,105.655915 87.421875,107.812175 C93.421905,101.812145 100.781206,98.8121754 109.5,98.8121754 C118.218794,98.8121754 125.578095,101.812145 131.578125,107.812175 C133.453134,105.655915 135.093743,103.030941 136.5,99.9371754 Z M125.25,72.6559254 L125.53125,72.7965504 L114.984375,84.6090504 C115.828129,85.734056 116.25,87.0465429 116.25,88.5465504 C116.25,90.4215598 115.593757,92.0152938 114.28125,93.3278004 C112.968743,94.6403069 111.375009,95.2965504 109.5,95.2965504 C108.281244,95.2965504 107.015632,94.8746796 105.703125,94.0309254 L103.875,95.7184254 L102.328125,94.1715504 L104.015625,92.4840504 C103.171871,91.3590448 102.75,90.0465579 102.75,88.5465504 C102.75,86.671541 103.406243,85.0778069 104.71875,83.7653004 C106.031257,82.4527938 107.624991,81.7965504 109.5,81.7965504 C110.812507,81.7965504 112.078119,82.1715466 113.296875,82.9215504 L125.25,72.6559254 Z M109.5,93.0465504 C110.812507,93.0465504 111.890621,92.6246796 112.734375,91.7809254 C113.578129,90.9371712 114,89.8590569 114,88.5465504 C114,87.2340438 113.578129,86.1559296 112.734375,85.3121754 C111.890621,84.4684212 110.812507,84.0465504 109.5,84.0465504 C108.187493,84.0465504 107.109379,84.4684212 106.265625,85.3121754 C105.421871,86.1559296 105,87.2340438 105,88.5465504 C105,89.8590569 105.421871,90.9371712 106.265625,91.7809254 C107.109379,92.6246796 108.187493,93.0465504 109.5,93.0465504 Z" id="" fill="#FFA923"></path>
            <path d="M15.4285714,47.9036932 L15.4285714,50.4751218 C15.4285714,50.8233378 15.3013406,51.1246741 15.046875,51.3791397 C14.7924094,51.6336052 14.4910732,51.7608361 14.1428571,51.7608361 L11.5714286,51.7608361 C11.2232125,51.7608361 10.9218763,51.6336052 10.6674107,51.3791397 C10.4129452,51.1246741 10.2857143,50.8233378 10.2857143,50.4751218 L10.2857143,47.9036932 C10.2857143,47.5554772 10.4129452,47.2541409 10.6674107,46.9996754 C10.9218763,46.7452098 11.2232125,46.617979 11.5714286,46.617979 L14.1428571,46.617979 C14.4910732,46.617979 14.7924094,46.7452098 15.046875,46.9996754 C15.3013406,47.2541409 15.4285714,47.5554772 15.4285714,47.9036932 Z M15.4285714,37.617979 L15.4285714,40.1894075 C15.4285714,40.5376236 15.3013406,40.8389598 15.046875,41.0934254 C14.7924094,41.3478909 14.4910732,41.4751218 14.1428571,41.4751218 L11.5714286,41.4751218 C11.2232125,41.4751218 10.9218763,41.3478909 10.6674107,41.0934254 C10.4129452,40.8389598 10.2857143,40.5376236 10.2857143,40.1894075 L10.2857143,37.617979 C10.2857143,37.2697629 10.4129452,36.9684267 10.6674107,36.7139611 C10.9218763,36.4594955 11.2232125,36.3322647 11.5714286,36.3322647 L14.1428571,36.3322647 C14.4910732,36.3322647 14.7924094,36.4594955 15.046875,36.7139611 C15.3013406,36.9684267 15.4285714,37.2697629 15.4285714,37.617979 Z M15.4285714,27.3322647 L15.4285714,29.9036932 C15.4285714,30.2519093 15.3013406,30.5532455 15.046875,30.8077111 C14.7924094,31.0621767 14.4910732,31.1894075 14.1428571,31.1894075 L11.5714286,31.1894075 C11.2232125,31.1894075 10.9218763,31.0621767 10.6674107,30.8077111 C10.4129452,30.5532455 10.2857143,30.2519093 10.2857143,29.9036932 L10.2857143,27.3322647 C10.2857143,26.9840486 10.4129452,26.6827124 10.6674107,26.4282468 C10.9218763,26.1737813 11.2232125,26.0465504 11.5714286,26.0465504 L14.1428571,26.0465504 C14.4910732,26.0465504 14.7924094,26.1737813 15.046875,26.4282468 C15.3013406,26.6827124 15.4285714,26.9840486 15.4285714,27.3322647 Z M61.7142857,47.9036932 L61.7142857,50.4751218 C61.7142857,50.8233378 61.5870548,51.1246741 61.3325893,51.3791397 C61.0781237,51.6336052 60.7767875,51.7608361 60.4285714,51.7608361 L21.8571429,51.7608361 C21.5089268,51.7608361 21.2075906,51.6336052 20.953125,51.3791397 C20.6986594,51.1246741 20.5714286,50.8233378 20.5714286,50.4751218 L20.5714286,47.9036932 C20.5714286,47.5554772 20.6986594,47.2541409 20.953125,46.9996754 C21.2075906,46.7452098 21.5089268,46.617979 21.8571429,46.617979 L60.4285714,46.617979 C60.7767875,46.617979 61.0781237,46.7452098 61.3325893,46.9996754 C61.5870548,47.2541409 61.7142857,47.5554772 61.7142857,47.9036932 Z M61.7142857,37.617979 L61.7142857,40.1894075 C61.7142857,40.5376236 61.5870548,40.8389598 61.3325893,41.0934254 C61.0781237,41.3478909 60.7767875,41.4751218 60.4285714,41.4751218 L21.8571429,41.4751218 C21.5089268,41.4751218 21.2075906,41.3478909 20.953125,41.0934254 C20.6986594,40.8389598 20.5714286,40.5376236 20.5714286,40.1894075 L20.5714286,37.617979 C20.5714286,37.2697629 20.6986594,36.9684267 20.953125,36.7139611 C21.2075906,36.4594955 21.5089268,36.3322647 21.8571429,36.3322647 L60.4285714,36.3322647 C60.7767875,36.3322647 61.0781237,36.4594955 61.3325893,36.7139611 C61.5870548,36.9684267 61.7142857,37.2697629 61.7142857,37.617979 Z M61.7142857,27.3322647 L61.7142857,29.9036932 C61.7142857,30.2519093 61.5870548,30.5532455 61.3325893,30.8077111 C61.0781237,31.0621767 60.7767875,31.1894075 60.4285714,31.1894075 L21.8571429,31.1894075 C21.5089268,31.1894075 21.2075906,31.0621767 20.953125,30.8077111 C20.6986594,30.5532455 20.5714286,30.2519093 20.5714286,29.9036932 L20.5714286,27.3322647 C20.5714286,26.9840486 20.6986594,26.6827124 20.953125,26.4282468 C21.2075906,26.1737813 21.5089268,26.0465504 21.8571429,26.0465504 L60.4285714,26.0465504 C60.7767875,26.0465504 61.0781237,26.1737813 61.3325893,26.4282468 C61.5870548,26.6827124 61.7142857,26.9840486 61.7142857,27.3322647 Z M66.8571429,55.617979 L66.8571429,22.1894075 C66.8571429,21.8411915 66.729912,21.5398552 66.4754464,21.2853897 C66.2209809,21.0309241 65.9196446,20.9036932 65.5714286,20.9036932 L6.42857143,20.9036932 C6.0803554,20.9036932 5.77901913,21.0309241 5.52455357,21.2853897 C5.27008801,21.5398552 5.14285714,21.8411915 5.14285714,22.1894075 L5.14285714,55.617979 C5.14285714,55.966195 5.27008801,56.2675313 5.52455357,56.5219968 C5.77901913,56.7764624 6.0803554,56.9036932 6.42857143,56.9036932 L65.5714286,56.9036932 C65.9196446,56.9036932 66.2209809,56.7764624 66.4754464,56.5219968 C66.729912,56.2675313 66.8571429,55.966195 66.8571429,55.617979 Z M72,11.9036932 L72,55.617979 C72,57.3858449 71.370542,58.8992227 70.1116071,60.1581575 C68.8526723,61.4170924 67.3392946,62.0465504 65.5714286,62.0465504 L6.42857143,62.0465504 C4.66070545,62.0465504 3.14732772,61.4170924 1.88839286,60.1581575 C0.629457991,58.8992227 0,57.3858449 0,55.617979 L0,11.9036932 C0,10.1358273 0.629457991,8.62244953 1.88839286,7.36351467 C3.14732772,6.1045798 4.66070545,5.47512181 6.42857143,5.47512181 L65.5714286,5.47512181 C67.3392946,5.47512181 68.8526723,6.1045798 70.1116071,7.36351467 C71.370542,8.62244953 72,10.1358273 72,11.9036932 Z" id="" fill="#9B9B9B"></path>
        </g>
    </g>
</svg>