<?xml version="1.0" encoding="UTF-8" standalone="no"?>
<svg width="124px" height="140px" viewBox="0 0 124 140" version="1.1" xmlns="http://www.w3.org/2000/svg" xmlns:xlink="http://www.w3.org/1999/xlink">
    <!-- Generator: Sketch 50.2 (55047) - http://www.bohemiancoding.com/sketch -->
    <title>Group 4</title>
    <desc>Created with Sketch.</desc>
    <defs>
        <circle id="path-1" cx="47.5" cy="47.5" r="47.5"></circle>
    </defs>
    <g id="Page-1" stroke="none" stroke-width="1" fill="none" fill-rule="evenodd">
        <g id="Group-4" transform="translate(-5.000000, 8.000000)">
            <g id="Group" transform="translate(65.453450, 65.453450) rotate(-58.000000) translate(-65.453450, -65.453450) translate(17.953450, 17.953450)">
                <mask id="mask-2" fill="white">
                    <use xlink:href="#path-1"></use>
                </mask>
                <g id="Mask"></g>
                <g mask="url(#mask-2)" stroke="#EEEEEE" stroke-linecap="square">
                    <g transform="translate(-32.000000, -8.000000)">
                        <path d="M0.747747748,0.5 L165.252252,0.5" id="Line"></path>
                        <path d="M0.747747748,10.5 L165.252252,10.5" id="Line-Copy"></path>
                        <path d="M0.747747748,20.5 L165.252252,20.5" id="Line-Copy-2"></path>
                        <path d="M0.747747748,30.5 L165.252252,30.5" id="Line-Copy-3"></path>
                        <path d="M0.747747748,40.5 L165.252252,40.5" id="Line-Copy-4"></path>
                        <path d="M0.747747748,50.5 L165.252252,50.5" id="Line-Copy-5"></path>
                        <path d="M0.747747748,60.5 L165.252252,60.5" id="Line-Copy-6"></path>
                        <path d="M0.747747748,70.5 L165.252252,70.5" id="Line-Copy-7"></path>
                        <path d="M0.747747748,80.5 L165.252252,80.5" id="Line-Copy-8"></path>
                        <path d="M0.747747748,90.5 L165.252252,90.5" id="Line-Copy-9"></path>
                        <path d="M0.747747748,100.5 L165.252252,100.5" id="Line-Copy-10"></path>
                        <path d="M0.747747748,5.5 L165.252252,5.5" id="Line-Copy-21"></path>
                        <path d="M0.747747748,15.5 L165.252252,15.5" id="Line-Copy-20"></path>
                        <path d="M0.747747748,25.5 L165.252252,25.5" id="Line-Copy-19"></path>
                        <path d="M0.747747748,35.5 L165.252252,35.5" id="Line-Copy-18"></path>
                        <path d="M0.747747748,45.5 L165.252252,45.5" id="Line-Copy-17"></path>
                        <path d="M0.747747748,55.5 L165.252252,55.5" id="Line-Copy-16"></path>
                        <path d="M0.747747748,65.5 L165.252252,65.5" id="Line-Copy-15"></path>
                        <path d="M0.747747748,75.5 L165.252252,75.5" id="Line-Copy-14"></path>
                        <path d="M0.747747748,85.5 L165.252252,85.5" id="Line-Copy-13"></path>
                        <path d="M0.747747748,95.5 L165.252252,95.5" id="Line-Copy-12"></path>
                        <path d="M0.747747748,105.5 L165.252252,105.5" id="Line-Copy-11"></path>
                    </g>
                </g>
            </g>
            <path d="M123.164062,69 C124.69532,69 125.980464,69.4921826 127.019531,70.4765625 C128.058599,71.4609424 128.578125,72.7187423 128.578125,74.25 L128.578125,121.171875 C128.578125,122.703133 128.058599,124.01562 127.019531,125.109375 C125.980464,126.20313 124.69532,126.75 123.164062,126.75 L99.703125,126.75 C96.9687363,126.75 95.6015625,127.789052 95.6015625,129.867188 L95.6015625,132 L92.9765625,132 L92.9765625,129.867188 C92.9765625,127.789052 91.6093887,126.75 88.875,126.75 L65.4140625,126.75 C63.8828048,126.75 62.5976614,126.20313 61.5585938,125.109375 C60.5195261,124.01562 60,122.703133 60,121.171875 L60,74.25 C60,72.7187423 60.5195261,71.4609424 61.5585938,70.4765625 C62.5976614,69.4921826 63.8828048,69 65.4140625,69 L90.0234375,69 C91.7734463,69 93.195307,69.6562434 94.2890625,70.96875 C95.382818,69.6562434 96.8046787,69 98.5546875,69 L123.164062,69 Z M92.9765625,125.929688 L92.9765625,75.234375 C92.9765625,74.4687462 92.5390669,73.6757854 91.6640625,72.8554688 C90.7890581,72.0351521 89.8593799,71.625 88.875,71.625 L65.4140625,71.625 C63.6640538,71.625 62.7890625,72.4999913 62.7890625,74.25 L62.7890625,121.171875 C62.7890625,121.937504 63.0351538,122.621091 63.5273438,123.222656 C64.0195337,123.824222 64.6484337,124.125 65.4140625,124.125 L89.0390625,124.125 C90.8984468,124.125 92.2109337,124.726556 92.9765625,125.929688 Z M104.789062,71.625 L104.789062,88.03125 L108.5625,85.734375 L110.039062,84.75 L111.515625,85.734375 L115.289062,88.03125 L115.289062,71.625 L104.789062,71.625 Z M125.789062,121.171875 L125.789062,74.25 C125.789062,72.4999913 124.914071,71.625 123.164062,71.625 L117.914062,71.625 L117.914062,93.1171875 L110.039062,87.8671875 L102.164062,93.1171875 L102.164062,71.625 L99.703125,71.625 C98.7187451,71.625 97.7890669,72.0351521 96.9140625,72.8554688 C96.0390581,73.6757854 95.6015625,74.4687462 95.6015625,75.234375 L95.6015625,125.929688 C96.2578158,124.726556 97.5703027,124.125 99.5390625,124.125 L123.164062,124.125 C123.929691,124.125 124.558591,123.824222 125.050781,123.222656 C125.542971,122.621091 125.789062,121.937504 125.789062,121.171875 Z" id="" fill="#C26D71"></path>
            <path d="M89,44.5 L89,59.5 C89,60.7500062 88.5625044,61.8124956 87.6875,62.6875 C86.8124956,63.5625044 85.7500062,64 84.5,64 L69.5,64 C68.2499938,64 67.1875044,63.5625044 66.3125,62.6875 C65.4374956,61.8124956 65,60.7500062 65,59.5 L65,44.5 C65,43.2499938 65.4374956,42.1875044 66.3125,41.3125 C67.1875044,40.4374956 68.2499938,40 69.5,40 L74,40 L74,31 L50,31 L50,40 L54.5,40 C55.7500062,40 56.8124956,40.4374956 57.6875,41.3125 C58.5625044,42.1875044 59,43.2499938 59,44.5 L59,59.5 C59,60.7500062 58.5625044,61.8124956 57.6875,62.6875 C56.8124956,63.5625044 55.7500062,64 54.5,64 L39.5,64 C38.2499938,64 37.1875044,63.5625044 36.3125,62.6875 C35.4374956,61.8124956 35,60.7500062 35,59.5 L35,44.5 C35,43.2499938 35.4374956,42.1875044 36.3125,41.3125 C37.1875044,40.4374956 38.2499938,40 39.5,40 L44,40 L44,31 L20,31 L20,40 L24.5,40 C25.7500062,40 26.8124956,40.4374956 27.6875,41.3125 C28.5625044,42.1875044 29,43.2499938 29,44.5 L29,59.5 C29,60.7500062 28.5625044,61.8124956 27.6875,62.6875 C26.8124956,63.5625044 25.7500062,64 24.5,64 L9.5,64 C8.24999375,64 7.18750437,63.5625044 6.3125,62.6875 C5.43749563,61.8124956 5,60.7500062 5,59.5 L5,44.5 C5,43.2499938 5.43749563,42.1875044 6.3125,41.3125 C7.18750437,40.4374956 8.24999375,40 9.5,40 L14,40 L14,31 C14,29.3749919 14.5937441,27.9687559 15.78125,26.78125 C16.9687559,25.5937441 18.3749919,25 20,25 L44,25 L44,16 L39.5,16 C38.2499938,16 37.1875044,15.5625044 36.3125,14.6875 C35.4374956,13.8124956 35,12.7500062 35,11.5 L35,-3.5 C35,-4.75000625 35.4374956,-5.81249562 36.3125,-6.6875 C37.1875044,-7.56250438 38.2499938,-8 39.5,-8 L54.5,-8 C55.7500062,-8 56.8124956,-7.56250438 57.6875,-6.6875 C58.5625044,-5.81249562 59,-4.75000625 59,-3.5 L59,11.5 C59,12.7500062 58.5625044,13.8124956 57.6875,14.6875 C56.8124956,15.5625044 55.7500062,16 54.5,16 L50,16 L50,25 L74,25 C75.6250081,25 77.0312441,25.5937441 78.21875,26.78125 C79.4062559,27.9687559 80,29.3749919 80,31 L80,40 L84.5,40 C85.7500062,40 86.8124956,40.4374956 87.6875,41.3125 C88.5625044,42.1875044 89,43.2499938 89,44.5 Z" id="" fill="#C1D76E"></path>
        </g>
    </g>
</svg>