<?xml version="1.0" encoding="UTF-8" standalone="no"?>
<svg width="145px" height="123px" viewBox="0 0 145 123" version="1.1" xmlns="http://www.w3.org/2000/svg" xmlns:xlink="http://www.w3.org/1999/xlink">
    <!-- Generator: Sketch 50.2 (55047) - http://www.bohemiancoding.com/sketch -->
    <title>Group 2</title>
    <desc>Created with Sketch.</desc>
    <defs>
        <circle id="path-1" cx="60" cy="60" r="60"></circle>
    </defs>
    <g id="Page-1" stroke="none" stroke-width="1" fill="none" fill-rule="evenodd">
        <g id="Group-2" transform="translate(-15.000000, -20.000000)">
            <g id="Group" transform="translate(83.000000, 83.000000) rotate(-58.000000) translate(-83.000000, -83.000000) translate(23.000000, 23.000000)">
                <mask id="mask-2" fill="white">
                    <use xlink:href="#path-1"></use>
                </mask>
                <g id="Mask"></g>
                <g mask="url(#mask-2)" stroke="#EEEEEE" stroke-linecap="square">
                    <g transform="translate(-40.421053, -10.105263)">
                        <path d="M0.944523471,0.631578947 L208.739687,0.631578947" id="Line"></path>
                        <path d="M0.944523471,13.2631579 L208.739687,13.2631579" id="Line-Copy"></path>
                        <path d="M0.944523471,25.8947368 L208.739687,25.8947368" id="Line-Copy-2"></path>
                        <path d="M0.944523471,38.5263158 L208.739687,38.5263158" id="Line-Copy-3"></path>
                        <path d="M0.944523471,51.1578947 L208.739687,51.1578947" id="Line-Copy-4"></path>
                        <path d="M0.944523471,63.7894737 L208.739687,63.7894737" id="Line-Copy-5"></path>
                        <path d="M0.944523471,76.4210526 L208.739687,76.4210526" id="Line-Copy-6"></path>
                        <path d="M0.944523471,89.0526316 L208.739687,89.0526316" id="Line-Copy-7"></path>
                        <path d="M0.944523471,101.684211 L208.739687,101.684211" id="Line-Copy-8"></path>
                        <path d="M0.944523471,114.315789 L208.739687,114.315789" id="Line-Copy-9"></path>
                        <path d="M0.944523471,126.947368 L208.739687,126.947368" id="Line-Copy-10"></path>
                        <path d="M0.944523471,6.94736842 L208.739687,6.94736842" id="Line-Copy-21"></path>
                        <path d="M0.944523471,19.5789474 L208.739687,19.5789474" id="Line-Copy-20"></path>
                        <path d="M0.944523471,32.2105263 L208.739687,32.2105263" id="Line-Copy-19"></path>
                        <path d="M0.944523471,44.8421053 L208.739687,44.8421053" id="Line-Copy-18"></path>
                        <path d="M0.944523471,57.4736842 L208.739687,57.4736842" id="Line-Copy-17"></path>
                        <path d="M0.944523471,70.1052632 L208.739687,70.1052632" id="Line-Copy-16"></path>
                        <path d="M0.944523471,82.7368421 L208.739687,82.7368421" id="Line-Copy-15"></path>
                        <path d="M0.944523471,95.3684211 L208.739687,95.3684211" id="Line-Copy-14"></path>
                        <path d="M0.944523471,108 L208.739687,108" id="Line-Copy-13"></path>
                        <path d="M0.944523471,120.631579 L208.739687,120.631579" id="Line-Copy-12"></path>
                        <path d="M0.944523471,133.263158 L208.739687,133.263158" id="Line-Copy-11"></path>
                    </g>
                </g>
            </g>
            <path d="M128.125,79.625 L133,83 C132.624998,84.8750094 131.500009,86.3437447 129.625,87.40625 C127.749991,88.4687553 125.625012,89 123.25,89 L106.375,89 C105.499996,89 104.687504,89.1874981 103.9375,89.5625 L94,98 L94,89 L91,89 C88.4999875,89 86.3750088,88.2812572 84.625,86.84375 C82.8749912,85.4062428 82,83.5625113 82,81.3125 L82,57.125 C82,54.7499881 82.8437416,52.7500081 84.53125,51.125 C86.2187584,49.4999919 88.2499881,48.6875 90.625,48.6875 L91,48.6875 L91,67.625 C91,70.7500156 92.1874881,73.3749894 94.5625,75.5 C96.9375119,77.6250106 99.7499837,78.6875 103,78.6875 L124.9375,78.6875 C126.062506,78.6875 127.124995,78.9999969 128.125,79.625 Z M148.1875,20 C151.437516,20 154.218738,21.0937391 156.53125,23.28125 C158.843762,25.4687609 160,28.1249844 160,31.25 L160,62.75 C160,65.8750156 158.843762,68.5312391 156.53125,70.71875 C154.218738,72.9062609 151.437516,74 148.1875,74 L145,74 L145,86 L130.9375,74.75 C130.437498,74.2499975 129.375008,74 127.75,74 L108.8125,74 C105.562484,74 102.781262,72.9062609 100.46875,70.71875 C98.1562384,68.5312391 97,65.8750156 97,62.75 L97,31.25 C97,27.9999837 97.9374906,25.3125106 99.8125,23.1875 C101.687509,21.0624894 104.249984,20 107.5,20 L148.1875,20 Z" id="" fill="#3AC1EF"></path>
            <path d="M55.5,90.328125 C55.5,94.1718942 54.0937641,98.0624803 51.28125,102 C48.6562369,105.562518 47.1562519,107.671872 46.78125,108.328125 C45.0937416,111.23439 44.25,115.078101 44.25,119.859375 L44.25,120 L26.25,120 L26.25,119.859375 C26.25,115.265602 25.3593839,111.42189 23.578125,108.328125 C22.8281212,107.015618 21.3750108,104.906265 19.21875,102 C16.4062359,98.0624803 15,94.1718942 15,90.328125 C15,84.8905978 16.9921676,80.226582 20.9765625,76.3359375 C24.9609574,72.445293 29.7187223,70.5 35.25,70.5 C40.7812777,70.5 45.5390426,72.445293 49.5234375,76.3359375 C53.5078324,80.226582 55.5,84.8905978 55.5,90.328125 Z M48.609375,101.71875 L49.453125,100.59375 C51.9843877,97.1249827 53.25,93.7031419 53.25,90.328125 C53.25,85.734352 51.3750187,81.5625187 47.625,77.8125 C44.2499831,74.4374831 40.1250244,72.75 35.25,72.75 C30.3749756,72.75 26.2500169,74.4374831 22.875,77.8125 C19.1249813,81.5625187 17.25,85.734352 17.25,90.328125 C17.25,93.7031419 18.5156123,97.1249827 21.046875,100.59375 L23.71875,104.25 C24.2812528,104.906253 24.8906217,105.890618 25.546875,107.203125 C27.5156348,110.578142 28.5,114.093732 28.5,117.75 L30.75,117.75 L30.75,102 L26.25,93 L28.640625,93 L33,102 L33,117.75 L37.5,117.75 L37.5,102 L41.859375,93 L44.25,93 L39.75,102 L39.75,117.75 L42,117.75 C42,114.187482 42.9843652,110.671892 44.953125,107.203125 C45.7031287,105.890618 46.8281175,104.203135 48.328125,102.140625 L48.46875,102 C48.46875,101.812499 48.5156245,101.71875 48.609375,101.71875 Z M30.75,133.5 L30.75,131.25 L39.75,131.25 L39.75,133.5 L30.75,133.5 Z M28.5,129 L28.5,126.75 L42,126.75 L42,129 L28.5,129 Z M28.5,124.5 L28.5,122.25 L42,122.25 L42,124.5 L28.5,124.5 Z" id="" fill="#3B6210"></path>
        </g>
    </g>
</svg>