<?xml version="1.0" encoding="UTF-8" standalone="no"?>
<svg width="131px" height="135px" viewBox="0 0 131 135" version="1.1" xmlns="http://www.w3.org/2000/svg" xmlns:xlink="http://www.w3.org/1999/xlink">
    <!-- Generator: Sketch 50.2 (55047) - http://www.bohemiancoding.com/sketch -->
    <title>Group 3</title>
    <desc>Created with Sketch.</desc>
    <defs>
        <circle id="path-1" cx="57.5" cy="57.5" r="57.5"></circle>
    </defs>
    <g id="Page-1" stroke="none" stroke-width="1" fill="none" fill-rule="evenodd">
        <g id="Group-3" transform="translate(-6.000000, -20.000000)">
            <g id="Group" transform="translate(79.500000, 79.500000) rotate(-58.000000) translate(-79.500000, -79.500000) translate(22.000000, 22.000000)">
                <mask id="mask-2" fill="white">
                    <use xlink:href="#path-1"></use>
                </mask>
                <g id="Mask"></g>
                <g mask="url(#mask-2)" stroke="#EEEEEE" stroke-linecap="square">
                    <g transform="translate(-38.736842, -9.684211)">
                        <path d="M0.905168326,0.605263158 L200.0422,0.605263158" id="Line"></path>
                        <path d="M0.905168326,12.7105263 L200.0422,12.7105263" id="Line-Copy"></path>
                        <path d="M0.905168326,24.8157895 L200.0422,24.8157895" id="Line-Copy-2"></path>
                        <path d="M0.905168326,36.9210526 L200.0422,36.9210526" id="Line-Copy-3"></path>
                        <path d="M0.905168326,49.0263158 L200.0422,49.0263158" id="Line-Copy-4"></path>
                        <path d="M0.905168326,61.1315789 L200.0422,61.1315789" id="Line-Copy-5"></path>
                        <path d="M0.905168326,73.2368421 L200.0422,73.2368421" id="Line-Copy-6"></path>
                        <path d="M0.905168326,85.3421053 L200.0422,85.3421053" id="Line-Copy-7"></path>
                        <path d="M0.905168326,97.4473684 L200.0422,97.4473684" id="Line-Copy-8"></path>
                        <path d="M0.905168326,109.552632 L200.0422,109.552632" id="Line-Copy-9"></path>
                        <path d="M0.905168326,121.657895 L200.0422,121.657895" id="Line-Copy-10"></path>
                        <path d="M0.905168326,6.65789474 L200.0422,6.65789474" id="Line-Copy-21"></path>
                        <path d="M0.905168326,18.7631579 L200.0422,18.7631579" id="Line-Copy-20"></path>
                        <path d="M0.905168326,30.8684211 L200.0422,30.8684211" id="Line-Copy-19"></path>
                        <path d="M0.905168326,42.9736842 L200.0422,42.9736842" id="Line-Copy-18"></path>
                        <path d="M0.905168326,55.0789474 L200.0422,55.0789474" id="Line-Copy-17"></path>
                        <path d="M0.905168326,67.1842105 L200.0422,67.1842105" id="Line-Copy-16"></path>
                        <path d="M0.905168326,79.2894737 L200.0422,79.2894737" id="Line-Copy-15"></path>
                        <path d="M0.905168326,91.3947368 L200.0422,91.3947368" id="Line-Copy-14"></path>
                        <path d="M0.905168326,103.5 L200.0422,103.5" id="Line-Copy-13"></path>
                        <path d="M0.905168326,115.605263 L200.0422,115.605263" id="Line-Copy-12"></path>
                        <path d="M0.905168326,127.710526 L200.0422,127.710526" id="Line-Copy-11"></path>
                    </g>
                </g>
            </g>
            <g id="Group" transform="translate(63.000000, 20.000000)" fill="#209FA6">
                <path d="M60.177813,41.4801432 C56.8844352,38.1959987 52.3137904,36.8053616 46.4447121,38.3726294 L25.5149954,17.4972548 L25.7921444,16.4552656 C26.997313,11.9478877 25.6949108,7.10372522 22.3935955,3.81562635 C19.0327495,0.463597708 14.2544082,-0.766226405 9.73535681,0.470847475 C9.09110094,0.646819093 8.58905761,1.1516665 8.41906402,1.79557763 C8.24774752,2.43882968 8.43493891,3.12360313 8.90721682,3.59483799 L13.9468323,8.61563118 C15.4198896,10.0873339 15.4053376,12.4441672 13.950801,13.898075 C12.5068476,15.3401196 10.0799742,15.3381424 8.64131245,13.9020295 L3.60169701,8.8786 C3.12875764,8.40802421 2.44018438,8.22282562 1.79394415,8.39418375 C1.14704247,8.56554188 0.643014778,9.0657758 0.46640665,9.70836879 C-0.75662117,14.162362 0.447224494,18.9524808 3.82394544,22.3176908 C7.11600031,25.6005171 11.680692,26.9964268 17.5537391,25.4265227 L38.4847787,46.3005792 C36.9224252,52.1478458 38.2698063,56.6572009 41.6081629,59.9835258 C44.9729777,63.3388498 49.7539648,64.5594469 54.2630944,63.3263275 C54.9073503,63.1503558 55.4087321,62.6461675 55.5793872,62.0022564 C55.7507037,61.3583453 55.5635123,60.6742309 55.0912344,60.2023369 L50.0529418,55.1822028 C48.5792231,53.7111592 48.5937751,51.3536668 50.0489731,49.900418 C51.5107857,48.4511237 53.9323676,48.4741911 55.3578002,49.8984408 L60.3987386,54.9198931 C60.8710165,55.3904689 61.5602512,55.5756675 62.2064914,55.4043093 C62.8520702,55.2336103 63.3567593,54.7327173 63.5333675,54.0894652 C64.7563953,49.6367901 63.5538725,44.8453532 60.177813,41.4801432" id="Fill-1"></path>
                <path d="M10.8638903,56.8258661 C10.1429277,57.5732 8.97624378,57.5732 8.25528125,56.8258661 C7.53431872,56.0785321 7.53431872,54.8684986 8.25528125,54.1211646 L19.4471184,42.5172534 C20.1680809,41.7699194 21.3360662,41.7699194 22.0563781,42.5172534 C22.7773406,43.2639128 22.7773406,44.4739464 22.0563781,45.2212803 L10.8638903,56.8258661 Z M19.7496884,33.7037037 L2.15898346,51.9412157 C-0.719661154,54.9251557 -0.719661154,59.778105 2.15898346,62.762045 C5.03762808,65.745985 9.71867902,65.745985 12.5973236,62.762045 L30.1886792,44.525882 L19.7496884,33.7037037 Z" id="Fill-2"></path>
                <path d="M63.4593967,3.76179098 L60.276769,0.546532049 C59.677219,-0.0591651239 58.7476235,-0.174254163 58.0211329,0.265714793 L48.2310863,6.19970566 C47.2005893,6.82381708 47.0261274,8.25947064 47.8756527,9.1183637 L48.6548724,9.90491508 L36.2264151,22.408846 L41.4492054,27.6851852 L53.8776628,15.1812543 L54.9752104,16.290055 C55.8247357,17.1482904 57.24647,16.9713821 57.8635964,15.9309772 L63.737364,6.03989631 C64.1728677,5.30595707 64.0576448,4.3668305 63.4593967,3.76179098" id="Fill-3"></path>
            </g>
            <path d="M69,126.289062 L63.5859375,127.601562 L63.09375,129.898438 L67.5234375,133.179688 L65.5546875,138.101562 L59.9765625,137.28125 L58.6640625,139.085938 L61.453125,143.84375 L57.6796875,147.617188 L52.921875,144.828125 L51.28125,145.976562 L52.1015625,151.554688 L47.34375,153.523438 L43.8984375,149.09375 L41.6015625,149.585938 L40.2890625,155 L35.0390625,155 L33.5625,149.585938 L31.4296875,149.09375 L27.984375,153.6875 L23.2265625,151.71875 L23.8828125,146.140625 L22.078125,144.828125 L17.15625,147.945312 L13.3828125,144.171875 L16.3359375,139.085938 L15.1875,137.28125 L9.4453125,138.101562 L7.4765625,133.34375 L12.0703125,129.734375 L11.7421875,127.765625 L6,126.289062 L6,121.039062 L11.7421875,119.5625 L12.0703125,117.59375 L7.3125,113.984375 L9.28125,109.0625 L15.1875,109.882812 L16.3359375,108.242188 L13.21875,102.992188 L16.828125,99.3828125 L22.078125,102.5 L23.8828125,101.1875 L23.2265625,95.4453125 L27.984375,93.3125 L31.59375,98.0703125 L33.5625,97.7421875 L35.0390625,92 L40.2890625,92 L41.765625,97.7421875 L43.734375,98.0703125 L47.34375,93.4765625 L52.1015625,95.4453125 L51.28125,101.1875 L53.0859375,102.5 L58.0078125,99.546875 L61.6171875,103.320312 L58.828125,108.242188 L59.9765625,109.882812 L65.71875,109.0625 L67.6875,113.984375 L63.09375,117.429688 L63.5859375,119.5625 L69,121.039062 L69,126.289062 Z M64.40625,134.164062 L60.140625,130.882812 L61.125,125.46875 L66.375,124.15625 L66.375,123.007812 L61.125,121.695312 L60.140625,116.28125 L64.40625,113.164062 L63.9140625,112.015625 L58.6640625,112.835938 L55.546875,108.40625 L58.3359375,103.8125 L57.515625,102.828125 L52.921875,105.617188 L48.328125,102.664062 L49.1484375,97.0859375 L48.1640625,96.7578125 L44.8828125,101.023438 L39.6328125,100.039062 L38.3203125,94.625 L37.171875,94.625 L35.6953125,100.039062 L30.4453125,101.023438 L27.1640625,96.59375 L26.015625,97.0859375 L26.8359375,102.664062 L22.2421875,105.617188 L20.765625,104.632812 L17.3203125,102.664062 L16.5,103.484375 L19.453125,108.40625 L16.5,112.835938 L11.0859375,112.015625 L10.59375,113.164062 L15.0234375,116.445312 L14.0390625,121.695312 L8.625,123.007812 L8.625,124.15625 L14.0390625,125.632812 L15.0234375,130.882812 L10.59375,134.164062 L11.0859375,135.148438 L16.5,134.492188 L19.453125,138.921875 L16.6640625,143.679688 L17.484375,144.664062 L22.2421875,141.710938 L26.8359375,144.664062 L26.015625,150.078125 L27.1640625,150.570312 L30.28125,146.140625 L35.6953125,147.289062 L37.0078125,152.375 L38.3203125,152.375 L39.46875,147.289062 L44.8828125,146.140625 L48.1640625,150.40625 L49.3125,149.914062 L48.4921875,144.664062 L52.7578125,141.710938 L57.3515625,144.335938 L58.171875,143.515625 L55.546875,139.085938 L58.6640625,134.492188 L63.9140625,135.148438 L64.40625,134.164062 Z M37.5,102.5 C43.296904,102.5 48.2460732,104.550761 52.3476562,108.652344 C56.4492393,112.753927 58.5,117.703096 58.5,123.5 C58.5,129.296904 56.4492393,134.246073 52.3476562,138.347656 C48.2460732,142.449239 43.296904,144.5 37.5,144.5 C31.703096,144.5 26.7539268,142.449239 22.6523438,138.347656 C18.5507607,134.246073 16.5,129.296904 16.5,123.5 C16.5,117.703096 18.5507607,112.753927 22.6523438,108.652344 C26.7539268,104.550761 31.703096,102.5 37.5,102.5 Z M19.125,123.5 C19.125,124.375004 19.2343739,125.578117 19.453125,127.109375 L36.515625,122.515625 L41.109375,105.453125 C39.5781173,105.234374 38.3750044,105.125 37.5,105.125 C32.4687248,105.125 28.1484555,106.929669 24.5390625,110.539062 C20.9296695,114.148456 19.125,118.468725 19.125,123.5 Z M37.5,141.875 C41.9843974,141.875 45.976545,140.398452 49.4765625,137.445312 L37.171875,125.140625 L20.109375,129.734375 C21.0937549,132.250013 22.5703027,134.492178 24.5390625,136.460938 C28.1484555,140.070331 32.4687248,141.875 37.5,141.875 Z M51.28125,135.640625 C54.3437653,132.249983 55.875,128.203149 55.875,123.5 C55.875,118.468725 54.0703305,114.148456 50.4609375,110.539062 C48.2734266,108.351552 45.9765745,106.875004 43.5703125,106.109375 L38.9765625,123.335938 L51.28125,135.640625 Z" id="ï‘" fill="#006099"></path>
        </g>
    </g>
</svg>