<?xml version="1.0" encoding="UTF-8" standalone="no"?>
<!DOCTYPE svg PUBLIC "-//W3C//DTD SVG 1.1//EN" "http://www.w3.org/Graphics/SVG/1.1/DTD/svg11.dtd">
<svg width="100%" height="100%" viewBox="0 0 405 84" version="1.1" xmlns="http://www.w3.org/2000/svg" xmlns:xlink="http://www.w3.org/1999/xlink" xml:space="preserve" xmlns:serif="http://www.serif.com/" style="fill-rule:evenodd;clip-rule:evenodd;stroke-linejoin:round;stroke-miterlimit:1.41421;">
    <g transform="matrix(1,0,0,1,-4834.64,-11095)">
        <g transform="matrix(4.16667,0,0,4.16667,0,0)">
            <g>
                <g transform="matrix(1,0,0,1,1163.68,2667.01)">
                    <path d="M0,7.7L-0.042,7.665C0.736,6.528 1.515,5.391 2.303,4.242C1.566,3.534 0.831,2.828 0.096,2.122C0.101,2.106 0.106,2.092 0.111,2.076L9.832,2.076C6.547,3.955 3.273,5.827 0,7.7M5.976,7.687L5.932,7.714C5.333,7.086 4.734,6.458 4.131,5.826C4.738,5.474 5.389,5.098 6.074,4.702C6.041,5.722 6.008,6.705 5.976,7.687M6.185,-1.403L6.229,-1.394C6.202,-0.374 6.175,0.645 6.148,1.674L4.063,1.674C4.781,0.633 5.482,-0.385 6.185,-1.403M4.562,-4.034C0.214,-4.044 -3.363,-0.516 -3.37,3.789C-3.376,8.18 0.135,11.726 4.499,11.735C8.917,11.744 12.462,8.24 12.469,3.86C12.475,-0.495 8.94,-4.024 4.562,-4.034" style="fill:white;fill-rule:nonzero;"/>
                </g>
                <g transform="matrix(1,0,0,1,1189.79,2678.93)">
                    <path d="M0,-15.849L0,-15.626C0,-12.709 0.001,-9.792 0,-6.876C-0.001,-6.059 -0.059,-5.248 -0.333,-4.469C-0.643,-3.586 -1.186,-2.92 -2.089,-2.594C-2.611,-2.406 -3.154,-2.371 -3.704,-2.393C-5.159,-2.449 -6.184,-3.214 -6.645,-4.593C-6.911,-5.386 -6.972,-6.205 -6.972,-7.034C-6.973,-9.898 -6.973,-12.762 -6.973,-15.626L-6.973,-15.846L-9.548,-15.846L-9.548,-15.679C-9.548,-12.595 -9.547,-9.51 -9.549,-6.425C-9.549,-5.58 -9.479,-4.745 -9.257,-3.928C-8.771,-2.126 -7.667,-0.907 -5.843,-0.42C-4.268,0 -2.678,-0.021 -1.113,-0.484C0.438,-0.943 1.5,-1.952 2.073,-3.47C2.399,-4.334 2.558,-5.235 2.562,-6.153C2.577,-9.348 2.572,-12.543 2.574,-15.739C2.574,-15.774 2.567,-15.809 2.563,-15.849L0,-15.849Z" style="fill:white;fill-rule:nonzero;"/>
                </g>
                <g transform="matrix(1,0,0,1,1211.64,2669.1)">
                    <path d="M0,3.39C0.021,3.319 0.036,3.254 0.058,3.193C0.735,1.236 1.417,-0.72 2.087,-2.68C2.192,-2.986 2.243,-3.31 2.319,-3.627C2.327,-3.659 2.337,-3.691 2.374,-3.723C2.413,-3.521 2.434,-3.313 2.496,-3.118C2.705,-2.459 2.922,-1.801 3.148,-1.147C3.653,0.309 4.166,1.763 4.674,3.218C4.693,3.271 4.708,3.326 4.728,3.39L0,3.39ZM3.928,-5.895C3.889,-6.002 3.838,-6.037 3.725,-6.036C2.863,-6.031 2.001,-6.03 1.139,-6.037C1.004,-6.038 0.951,-5.991 0.906,-5.872C-0.844,-1.211 -2.597,3.449 -4.349,8.109C-4.511,8.54 -4.673,8.971 -4.842,9.423L-4.653,9.423C-3.838,9.423 -3.023,9.419 -2.209,9.427C-2.07,9.428 -2.01,9.389 -1.965,9.255C-1.56,8.047 -1.144,6.842 -0.737,5.634C-0.7,5.526 -0.65,5.491 -0.537,5.491C1.397,5.494 3.332,5.494 5.266,5.491C5.387,5.49 5.437,5.531 5.476,5.642C5.902,6.855 6.336,8.065 6.761,9.278C6.801,9.393 6.854,9.426 6.973,9.426C7.808,9.42 8.644,9.423 9.479,9.423L9.641,9.423C9.618,9.356 9.604,9.317 9.59,9.278C7.702,4.22 5.813,-0.837 3.928,-5.895" style="fill:white;fill-rule:nonzero;"/>
                </g>
                <g transform="matrix(1,0,0,1,1204.2,2669.96)">
                    <path d="M0,1.701C-0.832,0.876 -1.842,0.315 -2.877,-0.203C-3.497,-0.513 -4.132,-0.792 -4.735,-1.13C-5.042,-1.3 -5.327,-1.538 -5.562,-1.799C-6.122,-2.415 -6.135,-3.39 -5.631,-4.003C-5.314,-4.389 -4.899,-4.629 -4.43,-4.777C-3.586,-5.042 -2.723,-5.049 -1.855,-4.949C-0.988,-4.85 -0.175,-4.588 0.558,-4.077C0.571,-4.104 0.58,-4.112 0.58,-4.121C0.581,-4.919 0.583,-5.718 0.578,-6.517C0.578,-6.558 0.526,-6.62 0.485,-6.635C0.239,-6.726 -0.005,-6.829 -0.26,-6.884C-1.602,-7.175 -2.957,-7.23 -4.316,-7.038C-5.245,-6.907 -6.129,-6.629 -6.917,-6.103C-8.46,-5.072 -8.954,-3.59 -8.581,-1.888C-8.39,-1.017 -7.871,-0.339 -7.195,0.22C-6.417,0.863 -5.537,1.343 -4.633,1.782C-4.09,2.046 -3.542,2.298 -3.006,2.575C-2.605,2.784 -2.243,3.052 -1.924,3.381C-1.188,4.139 -1.262,5.714 -2.473,6.297C-2.623,6.369 -2.779,6.437 -2.939,6.483C-3.902,6.761 -4.877,6.773 -5.854,6.574C-6.862,6.369 -7.817,6.034 -8.626,5.367C-8.64,5.356 -8.661,5.355 -8.688,5.347C-8.688,6.195 -8.689,7.03 -8.684,7.865C-8.683,7.914 -8.637,7.984 -8.594,8.007C-8.416,8.097 -8.237,8.188 -8.048,8.248C-6.55,8.727 -5.019,8.931 -3.449,8.775C-2.657,8.697 -1.881,8.541 -1.148,8.216C0.579,7.448 1.43,5.987 1.234,4.12C1.134,3.155 0.675,2.371 0,1.701" style="fill:white;fill-rule:nonzero;"/>
                </g>
                <g transform="matrix(1,0,0,1,1235.12,2676.63)">
                    <path d="M0,-1.232C-0.322,-0.204 -0.952,0.535 -2.034,0.781C-3.483,1.109 -4.728,0.435 -5.204,-0.976C-5.656,-2.316 -5.597,-3.667 -4.97,-4.945C-4.094,-6.731 -1.896,-6.704 -0.913,-5.898C-0.224,-5.333 0.138,-4.616 0.148,-3.724C0.151,-3.466 0.149,-3.21 0.149,-2.952C0.152,-2.374 0.175,-1.793 0,-1.232M0.141,-7.454L0.141,-6.187C0.073,-6.233 0.037,-6.283 0.002,-6.334C-0.453,-7.004 -1.076,-7.43 -1.868,-7.596C-2.473,-7.723 -3.082,-7.71 -3.684,-7.586C-5.07,-7.298 -5.986,-6.438 -6.523,-5.166C-7.07,-3.87 -7.129,-2.514 -6.886,-1.143C-6.75,-0.379 -6.437,0.309 -5.923,0.898C-5.133,1.802 -4.118,2.156 -2.94,2.116C-1.668,2.072 -0.671,1.538 0.027,0.464C0.054,0.423 0.082,0.383 0.109,0.342C0.123,0.346 0.136,0.35 0.149,0.354C0.149,0.662 0.167,0.97 0.145,1.276C0.111,1.751 0.095,2.235 -0.008,2.697C-0.278,3.919 -1.042,4.671 -2.277,4.922C-3.041,5.078 -3.802,5.054 -4.558,4.87C-5.179,4.718 -5.761,4.467 -6.346,4.153C-6.35,4.229 -6.354,4.28 -6.354,4.33C-6.354,4.699 -6.345,5.067 -6.358,5.434C-6.365,5.603 -6.309,5.683 -6.154,5.747C-4.561,6.412 -2.93,6.491 -1.281,6.024C0.033,5.651 0.887,4.768 1.321,3.478C1.542,2.821 1.644,2.14 1.645,1.449C1.652,-1.478 1.651,-4.406 1.652,-7.334C1.652,-7.373 1.642,-7.413 1.637,-7.454L0.141,-7.454Z" style="fill:white;fill-rule:nonzero;"/>
                </g>
                <g transform="matrix(1,0,0,1,1246.19,2671.94)">
                    <path d="M0,3.818C-0.442,4.892 -1.258,5.452 -2.405,5.536C-3.083,5.585 -3.738,5.494 -4.333,5.134C-5.029,4.714 -5.463,4.091 -5.671,3.317C-5.934,2.342 -5.924,1.361 -5.622,0.396C-5.189,-0.987 -4.106,-1.747 -2.659,-1.724C-1.789,-1.71 -1.026,-1.458 -0.456,-0.763C-0.09,-0.319 0.118,0.201 0.212,0.762C0.277,1.144 0.303,1.532 0.346,1.918C0.321,2.571 0.25,3.211 0,3.818M-1.128,-2.799C-2.007,-3.052 -2.905,-3.054 -3.797,-2.875C-5.324,-2.569 -6.43,-1.71 -6.997,-0.25C-7.518,1.095 -7.55,2.487 -7.112,3.859C-6.686,5.197 -5.79,6.12 -4.445,6.569C-3.624,6.843 -2.775,6.872 -1.922,6.742C-0.337,6.5 0.78,5.632 1.434,4.174C1.761,3.444 1.867,2.665 1.862,1.81C1.868,1.289 1.814,0.714 1.662,0.154C1.26,-1.328 0.377,-2.367 -1.128,-2.799" style="fill:white;fill-rule:nonzero;"/>
                </g>
                <g transform="matrix(1,0,0,1,1257.32,2678.52)">
                    <path d="M0,-9.36C-0.426,-9.36 -0.852,-9.355 -1.277,-9.363C-1.399,-9.366 -1.446,-9.32 -1.487,-9.21C-2.091,-7.543 -2.705,-5.88 -3.309,-4.213C-3.575,-3.478 -3.833,-2.741 -4.078,-2C-4.156,-1.763 -4.182,-1.51 -4.231,-1.264C-4.32,-1.607 -4.385,-1.954 -4.5,-2.284C-5.306,-4.607 -6.123,-6.927 -6.935,-9.25C-6.963,-9.333 -7.003,-9.363 -7.092,-9.362C-7.565,-9.358 -8.038,-9.36 -8.511,-9.36C-8.541,-9.36 -8.571,-9.353 -8.617,-9.348C-8.605,-9.306 -8.602,-9.286 -8.595,-9.266C-7.433,-6.213 -6.27,-3.159 -5.11,-0.104C-5.078,-0.019 -5.033,0.003 -4.948,0.002C-4.548,-0.001 -4.149,-0.004 -3.75,0.004C-3.626,0.006 -3.569,-0.029 -3.522,-0.149C-2.415,-2.926 -1.302,-5.701 -0.191,-8.476C-0.077,-8.762 0.036,-9.048 0.156,-9.349C0.091,-9.354 0.045,-9.36 0,-9.36" style="fill:white;fill-rule:nonzero;"/>
                </g>
                <g transform="matrix(1,0,0,1,1224.72,2678.64)">
                    <ellipse cx="-0.008" cy="-1.727" rx="1.737" ry="1.735" style="fill:white;"/>
                </g>
            </g>
        </g>
    </g>
</svg>
