<svg id="Layer_1" xmlns="http://www.w3.org/2000/svg" viewBox="0 0 28 28"><style>.st0{fill:#04838a}</style><path class="st0" d="M23.9 5.9c0-.6-.2-1.1-.6-1.5C20.8 1.9 17.6.6 14.1.6S7.2 1.9 4.8 4.4c-.4.4-.6 1-.6 1.5 0 .4.1.8.3 1.1-1.3 1.9-2 4.1-2 6.6v2.9c0 2.1 1.1 4 2.9 5.1 0 1.2 1 2.1 2.2 2.1 1.2 0 2.2-1 2.2-2.2V15c0-1.2-1-2.2-2.2-2.2-1.1 0-2 .8-2.1 1.8H3.8v-1.1c0-2.1.6-4 1.7-5.6.3.2.5.2.8.2.6 0 1.1-.2 1.5-.6C9.4 5.9 11.6 5 14 5s4.5.9 6.2 2.5c.4.4 1 .6 1.5.6.3 0 .5 0 .7-.1 1.1 1.6 1.7 3.6 1.7 5.6v1.1h-1.5c-.2-1-1.1-1.8-2.1-1.8-1.2 0-2.2 1-2.2 2.2v6.5c0 1.2 1 2.2 2.2 2.2 1.2 0 2.1-.9 2.2-2.1.5-.3 1-.7 1.4-1.1-.1 1.2-.4 2.4-.9 3.5-.1.3-.4.4-.7.4h-4.3c-.3-.8-1.1-1.5-2-1.5h-1.5c-1.2 0-2.2 1-2.2 2.2s1 2.2 2.2 2.2h1.5c.9 0 1.7-.6 2-1.5h4.3c.9 0 1.7-.5 2-1.3.7-1.8 1.1-3.6 1.1-5.5v-5.5c0-2.4-.8-4.7-2-6.6.2-.3.3-.7.3-1.1zM8.2 15.1v6.5c0 .4-.3.7-.7.7-.4 0-.7-.3-.7-.7v-6.5c0-.4.3-.7.7-.7.4 0 .7.3.7.7zm-2.9 4.8c-.9-.8-1.5-2-1.5-3.3v-.4h1.5v3.7zm11.6 5.3c0 .4-.3.7-.7.7h-1.5c-.4 0-.7-.3-.7-.7s.3-.7.7-.7h1.5c.4 0 .7.3.7.7zm2.9-3.6v-6.5c0-.4.3-.7.7-.7s.7.3.7.7v6.5c0 .4-.3.7-.7.7s-.7-.3-.7-.7zm2.9-5.4h1.5v.4c0 1.3-.5 2.5-1.5 3.3v-3.7zm-1.5-9.7c-1.9-1.9-4.5-3-7.2-3s-5.3 1.1-7.2 3c-.3.3-.8.3-1 0-.1-.2-.2-.4-.2-.6s.1-.4.2-.5C8 3.2 10.9 2 14 2s6 1.2 8.2 3.4c.1.1.2.3.2.5s-.1.4-.2.5c-.3.3-.7.3-1 .1z"/></svg>